<?xml version="1.0" encoding="UTF-8" standalone="no"?>
<!-- Created with Inkscape (http://www.inkscape.org/) -->

<svg
   xmlns:dc="http://purl.org/dc/elements/1.1/"
   xmlns:cc="http://creativecommons.org/ns#"
   xmlns:rdf="http://www.w3.org/1999/02/22-rdf-syntax-ns#"
   xmlns:svg="http://www.w3.org/2000/svg"
   xmlns="http://www.w3.org/2000/svg"
   xmlns:sodipodi="http://sodipodi.sourceforge.net/DTD/sodipodi-0.dtd"
   xmlns:inkscape="http://www.inkscape.org/namespaces/inkscape"
   width="210mm"
   height="297mm"
   viewBox="0 0 210 297"
   version="1.1"
   id="svg12562"
   inkscape:version="0.92.4 5da689c313, 2019-01-14"
   sodipodi:docname="freestyle.svg">
  <defs
     id="defs12556">
    <clipPath
       id="clipPath1810"
       clipPathUnits="userSpaceOnUse">
      <path
         inkscape:connector-curvature="0"
         id="path1808"
         d="m 7818.61,6784.69 c -12.57,408.57 -50.28,1596.54 -201.13,1904.53 -150.86,307.99 -182.29,119.43 -320.57,515.42 -138.28,395.99 -279.7,351.99 -279.7,351.99 0,0 -141.42,44 -279.7,-351.99 -138.29,-395.99 -169.71,-207.43 -320.57,-515.42 -150.85,-307.99 -188.57,-1495.96 -201.13,-1904.53 -12.57,-408.57 47.11,-1549.39 87.97,-1935.96 40.87,-386.56 91.16,-493.42 216.86,-656.84 125.71,-163.41 116.29,-367.7 194.86,-512.27 78.57,-144.56 301.71,-153.21 301.71,-153.21 0,0 223.14,8.65 301.71,153.21 78.56,144.57 69.15,348.86 194.85,512.27 125.71,163.42 176.01,270.28 216.86,656.84 40.87,386.57 100.55,1527.39 87.98,1935.96" />
    </clipPath>
    <clipPath
       id="clipPath1810-3"
       clipPathUnits="userSpaceOnUse">
      <path
         inkscape:connector-curvature="0"
         id="path1808-6"
         d="m 7818.61,6784.69 c -12.57,408.57 -50.28,1596.54 -201.13,1904.53 -150.86,307.99 -182.29,119.43 -320.57,515.42 -138.28,395.99 -279.7,351.99 -279.7,351.99 0,0 -141.42,44 -279.7,-351.99 -138.29,-395.99 -169.71,-207.43 -320.57,-515.42 -150.85,-307.99 -188.57,-1495.96 -201.13,-1904.53 -12.57,-408.57 47.11,-1549.39 87.97,-1935.96 40.87,-386.56 91.16,-493.42 216.86,-656.84 125.71,-163.41 116.29,-367.7 194.86,-512.27 78.57,-144.56 301.71,-153.21 301.71,-153.21 0,0 223.14,8.65 301.71,153.21 78.56,144.57 69.15,348.86 194.85,512.27 125.71,163.42 176.01,270.28 216.86,656.84 40.87,386.57 100.55,1527.39 87.98,1935.96" />
    </clipPath>
  </defs>
  <sodipodi:namedview
     id="base"
     pagecolor="#ffffff"
     bordercolor="#666666"
     borderopacity="1.0"
     inkscape:pageopacity="0.0"
     inkscape:pageshadow="2"
     inkscape:zoom="0.1767767"
     inkscape:cx="2098.6852"
     inkscape:cy="1133.0677"
     inkscape:document-units="mm"
     inkscape:current-layer="layer1"
     showgrid="true"
     showborder="false"
     inkscape:window-width="1366"
     inkscape:window-height="660"
     inkscape:window-x="0"
     inkscape:window-y="108"
     inkscape:window-maximized="0">
    <inkscape:grid
       type="xygrid"
       id="grid13162" />
  </sodipodi:namedview>
  <metadata
     id="metadata12559">
    <rdf:RDF>
      <cc:Work
         rdf:about="">
        <dc:format>image/svg+xml</dc:format>
        <dc:type
           rdf:resource="http://purl.org/dc/dcmitype/StillImage" />
        <dc:title />
      </cc:Work>
    </rdf:RDF>
  </metadata>
  <g
     inkscape:label="Layer 1"
     inkscape:groupmode="layer"
     id="layer1">
    <path
       inkscape:connector-curvature="0"
       id="carre"
       style="fill:#ff0000;fill-opacity:1;fill-rule:nonzero;stroke:#000000;stroke-width:1;stroke-miterlimit:4;stroke-dasharray:none;stroke-opacity:1"
       d="M 0,0" />
    <path
       inkscape:connector-curvature="0"
       id="path7693"
       style="fill:none;fill-opacity:1;fill-rule:nonzero;stroke:#000000;stroke-width:1;stroke-miterlimit:4;stroke-dasharray:none;stroke-opacity:1"
       d="m 797.3876,99.407789 c 0,51.590641 12.376,69.645511 12.376,98.664531 0,29.01999 -22.7981,39.33626 -22.7981,53.52507 0,14.18975 -1.3014,44.49529 -20.1917,44.49529 -18.8903,0 -20.1925,-30.30554 -20.1925,-44.49529 0,-14.18881 -22.7982,-24.50508 -22.7982,-53.52507 0,-29.01902 12.377,-47.07389 12.377,-98.664531 0,-51.591582 -12.377,-69.646446 -12.377,-98.66453552 0,-29.01996848 22.7982,-39.33716848 22.7982,-53.52507848 0,-14.189737 1.3022,-44.496214 20.1925,-44.496214 18.8903,0 20.1917,30.306477 20.1917,44.496214 0,14.18791 22.7981,24.50511 22.7981,53.52507848 0,29.01808952 -12.376,47.07295352 -12.376,98.66453552" />
    <path
       inkscape:connector-curvature="0"
       id="path7869"
       style="fill:none;fill-opacity:1;fill-rule:nonzero;stroke:#000000;stroke-width:1;stroke-miterlimit:4;stroke-dasharray:none;stroke-opacity:1"
       d="m 551.6529,296.09268 c -23.1479,0 -16.1427,-29.39976 -18.4277,-43.4229 -2.2848,-14.02033 -19.1883,-14.02033 -21.4723,-31.20759 -2.2848,-17.18911 -7.1405,-65.58489 -7.1405,-144.783327 0,-61.912479 -0.076,-97.724314 10.5152,-108.209077 11.7601,-11.6428 15.7714,-16.437883 17.4319,-36.984754 1.4339,-17.733698 6.3658,-28.763071 19.0934,-28.763071 12.7277,0 17.6595,11.029373 19.0934,28.763071 1.6606,20.546871 5.6718,25.341954 17.4328,36.984754 10.5904,10.484763 10.5143,46.296598 10.5143,108.209077 0,79.198437 -4.8565,127.594217 -7.1396,144.783327 -2.2849,17.18726 -19.1892,17.18726 -21.4742,31.20759 -2.2839,14.02314 4.7212,43.4229 -18.4267,43.4229" />
    <path
       inkscape:connector-curvature="0"
       id="path8045"
       style="fill:none;fill-opacity:1;fill-rule:nonzero;stroke:#000000;stroke-width:1;stroke-miterlimit:4;stroke-dasharray:none;stroke-opacity:1"
       d="m 671.1074,296.3179 c 0,0 -20.7178,-13.82244 -20.7178,-61.5828 0,-28.2779 -9.7511,-36.44681 -9.7511,-36.44681 -15.2339,-107.458056 -10.1553,-235.655342 -10.1553,-235.655342 24.1199,-14.452677 23.4871,-49.64457 23.4871,-49.64457 l 17.1371,-10.052176 17.1381,10.052176 c 0,0 -0.6328,35.191893 23.487,49.64457 0,0 5.0787,128.197286 -10.1563,235.655342 0,0 -9.75,8.16891 -9.75,36.44681 0,47.76036 -20.7188,61.5828 -20.7188,61.5828" />
    <path
       d="m 220.26841,690.91141 0.33147,-0.0262 c -0.0931,-1.11003 -0.27192,-6.53811 -0.49065,-14.25653 -0.64981,-23.16704 -1.63771,-67.11367 -1.63771,-78.54424 0,-14.06552 2.12836,-69.31013 2.12836,-89.74769 0,-1.70477 -0.014,-3.16797 -0.0466,-4.34759 -0.21222,-7.65998 -1.35932,-12.46053 -3.32851,-15.68561 -1.97599,-3.22837 -4.78057,-4.82418 -8.14229,-6.06878 -3.26221,-1.21376 -5.29788,-3.12728 -6.51793,-4.73752 -0.60989,-0.80545 -1.01444,-1.5341 -1.26632,-2.05926 -0.1256,-0.26192 -0.21225,-0.47329 -0.27194,-0.6177 -0.0268,-0.0722 -0.0466,-0.12741 -0.0593,-0.16346 l -0.014,-0.0407 v -0.01 l -0.31821,0.0965 0.33147,0.0177 c 0,-0.003 0.63656,-11.86776 0.63656,-25.51447 0,-7.79914 -0.21223,-16.17991 -0.86191,-23.26877 -0.3316,-3.54477 -0.7692,-6.76594 -1.34607,-9.43567 -0.59012,-2.67106 -1.30611,-4.78743 -2.24112,-6.14824 -2.70524,-3.93468 -6.55098,-6.0983 -10.17794,-7.27463 -3.63347,-1.177 -7.05485,-1.37458 -8.97102,-1.37521 -0.98129,0 -1.5649,0.0526 -1.57819,0.0538 l -0.29829,0.0269 v 0.30529 h 0.33161 l 0.0325,-0.32694 c -0.014,0 -0.59677,-0.0538 -1.57805,-0.0538 -1.9162,0 -5.33758,0.19893 -8.97118,1.3759 -3.62683,1.17567 -7.47255,3.33996 -10.17778,7.274 -0.9349,1.36148 -1.65103,3.47715 -2.23454,6.14754 -1.74384,8.00396 -2.20795,21.0021 -2.20795,32.70315 0,13.64736 0.62992,25.51314 0.62992,25.51643 l 0.33147,-0.017 -0.31157,-0.0965 v 0.01 c -0.0395,0.13257 -0.49742,1.45533 -1.73059,3.03209 -1.22668,1.57743 -3.23569,3.41021 -6.39855,4.58589 -3.36155,1.2446 -6.1664,2.84041 -8.14228,6.06878 -1.96922,3.22574 -3.11629,8.02563 -3.32854,15.68561 -0.0339,1.17962 -0.0466,2.64282 -0.0466,4.3476 0,20.43756 2.13503,75.68217 2.12839,89.74769 0,7.61863 -0.43759,29.694 -0.9216,50.42435 -0.2454,10.36583 -0.49728,20.39687 -0.71614,28.11987 -0.21887,7.71843 -0.39778,13.1465 -0.49065,14.25655 -0.0268,0.34201 -0.0395,0.71225 -0.0395,1.1061 0,2.49054 0.56359,5.95849 1.9163,9.44813 1.34604,3.48765 3.47432,6.99762 6.63056,9.53214 1.51172,1.21901 3.01694,2.07436 4.40267,2.99732 2.07531,1.389 3.88548,2.90276 5.22478,6.06942 1.33942,3.16797 2.17493,8.01382 2.17493,15.98954 0,2.51024 -0.079,5.3303 -0.25866,8.50547 -0.39778,7.25039 -0.80222,13.93162 -0.80222,19.92229 0,9.44551 0.98793,17.18621 4.62143,22.73117 1.81681,2.77019 4.29657,4.97911 7.61182,6.54275 3.3219,1.56496 7.47268,2.4892 12.64444,2.72615 l 0.34488,0.0157 v -0.3499 h -0.33147 l 0.014,0.32824 c 5.17834,-0.23695 9.32251,-1.16125 12.64425,-2.72621 4.97972,-2.34481 8.06286,-6.14494 9.86639,-11.10499 1.81004,-4.96135 2.36715,-11.08264 2.36715,-18.1689 0,-5.99065 -0.40458,-12.6719 -0.80238,-19.92161 -0.17907,-3.17521 -0.2585,-5.99591 -0.2585,-8.50615 0,-10.63825 1.49183,-15.69347 3.66663,-18.66124 1.08741,-1.48747 2.34725,-2.47346 3.73295,-3.39707 1.38586,-0.92296 2.89097,-1.77829 4.40933,-2.9973 3.14947,-2.53516 5.27783,-6.04451 6.6239,-9.53215 1.35268,-3.48965 1.9163,-6.95759 1.9163,-9.44814 0,-0.39385 -0.014,-0.76409 -0.0395,-1.1061 l -0.33147,0.0262 -0.3316,0.0262 c 0.0268,0.32296 0.0395,0.67548 0.0395,1.05357 0,2.39468 -0.55033,5.80426 -1.8697,9.21314 -1.31953,3.4115 -3.40149,6.82104 -6.43171,9.25775 -1.46531,1.17961 -2.94391,2.02183 -4.35628,2.9625 -2.11511,1.40609 -4.07768,3.05966 -5.46354,6.36092 -1.39235,3.2999 -2.22787,8.22254 -2.22787,16.2416 0,2.52467 0.0861,5.35655 0.25852,8.54157 0.40457,7.25168 0.80235,13.92439 0.80235,19.88617 0,9.4048 -1.0078,17.02998 -4.51541,22.37408 -1.75035,2.67367 -4.12424,4.79004 -7.34007,6.30707 -3.21577,1.51639 -7.27358,2.42949 -12.38575,2.6632 l -0.31835,0.0144 v 0.31897 h 0.33163 l 0.014,-0.32757 c -5.10558,-0.23372 -9.17001,-1.14686 -12.38578,-2.6632 -4.82049,-2.27716 -7.75787,-5.8968 -9.52815,-10.7354 -1.76374,-4.83732 -2.32732,-10.89361 -2.32732,-17.94575 0,-5.96175 0.39777,-12.63448 0.80234,-19.88616 0.17894,-3.18503 0.25853,-6.01691 0.25853,-8.54157 0,-10.6888 -1.48521,-15.88977 -3.79264,-19.04659 -1.14711,-1.57414 -2.49301,-2.6172 -3.89877,-3.55659 -1.41224,-0.94067 -2.89095,-1.78289 -4.35623,-2.9625 -3.03022,-2.43606 -5.11223,-5.84625 -6.4316,-9.2571 -1.31953,-3.40953 -1.86986,-6.8191 -1.86986,-9.21379 0,-0.37812 0.014,-0.73061 0.0395,-1.05357 0.0931,-1.15928 0.27191,-6.56242 0.49077,-14.29067 0.64969,-23.17427 1.63775,-67.11106 1.63775,-78.56263 0,-14.09638 -2.12852,-69.3344 -2.12852,-89.74769 0,-1.70083 0.014,-3.15943 0.0466,-4.32987 0.20561,-7.60615 1.35269,-12.29643 3.23567,-15.3633 1.88318,-3.0636 4.49556,-4.56225 7.80421,-5.79373 3.40148,-1.26233 5.53648,-3.26841 6.81622,-4.95874 1.27973,-1.69099 1.71069,-3.06622 1.71733,-3.09183 l 0.0198,-0.0557 v -0.0584 c 0,-0.003 -0.0395,-0.73914 -0.10017,-2.06318 -0.17907,-3.97211 -0.53043,-13.1977 -0.53043,-23.41846 0,-7.78733 0.20558,-16.15301 0.85539,-23.20775 0.32486,-3.52705 0.76243,-6.7265 1.33266,-9.35624 0.57023,-2.62901 1.29304,-4.69156 2.13505,-5.9171 2.60591,-3.7831 6.30568,-5.8725 9.83967,-7.01999 3.53415,-1.14679 6.89584,-1.34308 8.76573,-1.34308 0.47738,0 0.8619,0.0126 1.12056,0.0255 0.13263,0.007 0.23199,0.0126 0.29832,0.0178 0.0663,0.004 0.0931,0.007 0.0931,0.007 l 0.36462,0.0329 v -0.36558 h -0.33147 l 0.0325,0.3269 c 0,0 0.0268,-0.004 0.0931,-0.007 0.20558,-0.0147 0.70287,-0.0434 1.41901,-0.0434 1.86971,0 5.2314,0.1963 8.76554,1.34312 3.53399,1.14675 7.23395,3.23622 9.8397,7.01988 0.84217,1.22562 1.5648,3.28813 2.13503,5.9172 1.72394,7.89499 2.19469,20.88785 2.19469,32.56592 0,6.81318 -0.15917,13.18457 -0.31821,17.8512 -0.079,2.33364 -0.15918,4.24125 -0.21887,5.56529 -0.0593,1.32337 -0.0988,2.06122 -0.0988,2.06318 v 0.0577 l 0.0199,0.0557 c 0,0.0263 0.43757,1.40084 1.71717,3.09248 1.27974,1.69033 3.41474,3.69641 6.81622,4.95809 3.30867,1.23149 5.9277,2.73079 7.8042,5.79439 1.88299,3.06688 3.03007,7.75648 3.23567,15.3633 0.0339,1.17042 0.0466,2.62904 0.0466,4.32986 0,20.41328 -2.12839,75.65066 -2.12839,89.7477 0,7.63569 0.4376,29.70517 0.9216,50.43945 0.2454,10.36714 0.49728,20.39885 0.71615,28.12314 0.21873,7.72827 0.3978,13.13143 0.49064,14.29134 l 0.33147,-0.0269"
       style="fill:none;fill-opacity:1;fill-rule:nonzero;stroke:#000000;stroke-width:1;stroke-miterlimit:4;stroke-dasharray:none;stroke-opacity:1"
       id="path1858"
       inkscape:connector-curvature="0" />
    <path
       d="m 92.73936,484.8674 c -0.0692,-0.66969 -0.11148,-1.41525 -0.11148,-2.22716 0,-3.99116 0.86177,-9.57431 2.46239,-15.74255 0.60212,-2.32195 1.09432,-4.05412 1.09432,-5.51814 0,-0.80649 -0.15988,-1.53781 -0.54018,-2.20143 -0.57446,-0.99746 -1.62771,-1.80802 -3.29664,-2.61992 -1.67569,-0.81258 -3.98765,-1.6333 -7.15461,-2.62399 -5.98495,-1.86422 -10.19838,-7.31736 -12.88627,-12.33848 -1.34733,-2.50816 -2.31845,-4.90128 -2.94781,-6.66458 -0.31468,-0.88163 -0.54723,-1.6062 -0.69765,-2.11001 -0.0748,-0.25122 -0.12841,-0.44761 -0.1706,-0.58033 -0.0536,-0.13271 0.03625,-0.038 0.03625,-0.0387 -0.353077,-0.0732 -0.555542,-0.0777 -0.07912,-0.0777 v -31.07132 c 0,-1.48431 -0.55372,-2.37007 -1.21074,-2.82375 -0.64953,-0.45439 -1.34027,-0.49564 -1.61388,-0.497 -0.0748,0 -0.11713,0.004 -0.12841,0.004 l 0.0536,0.33788 v -0.33858 H 49.42433 33.30168 v 0.33857 l 0.0536,-0.33788 c 0,0 -0.0536,-0.004 -0.12841,-0.004 -0.27729,0 -0.96309,0.0428 -1.61544,0.49701 -0.65645,0.45367 -1.21497,1.33943 -1.20749,2.82374 v 31.07132 c 0,0 0.02314,0.0777 -0.04288,0.11644 -0.27728,0.99612 -1.63152,5.55813 -4.33493,10.29956 -2.70298,4.74551 -6.75358,9.64475 -12.3643,11.39384 -4.22402,1.32247 -6.92799,2.33685 -8.62457,3.44266 -0.84681,0.55324 -1.44582,1.13762 -1.82979,1.80124 -0.38396,0.66362 -0.54087,1.39494 -0.54031,2.20076 0,1.4647 0.49064,3.19686 1.09333,5.51882 1.60274,6.1689 2.46295,11.75274 2.46239,15.74322 0,0.81192 -0.0536,1.55679 -0.10725,2.22648 -0.1016,0.96023 -0.49586,2.40054 -1.03886,3.99457 -0.81124,2.39373 -1.94239,5.14909 -2.86991,7.30313 -0.46398,1.07667 -0.87673,2.0037 -1.17334,2.66122 -0.29859,0.65752 -0.47456,1.04349 -0.47992,1.04417 L 0.5,499.93818 v 183.73505 c 0,0.0616 0.0536,3.14808 3.54132,6.62393 0.47992,0.47062 0.95786,1.43896 1.34987,2.72826 1.19041,3.87536 1.73919,10.60292 1.73708,16.18067 0,2.0396 -0.0748,3.92819 -0.208,5.46871 -0.13406,1.53784 -0.34671,2.74114 -0.58942,3.35258 -0.63726,1.62859 -1.56634,4.00812 -1.56902,6.36192 0,1.59808 0.44267,3.20632 1.72749,4.48887 1.28425,1.28253 3.36479,2.21633 6.569,2.58945 2.65656,0.30946 5.18936,1.57574 7.49977,3.52325 3.46612,2.91852 6.41548,7.36475 8.48741,12.28835 2.07476,4.9236 3.27364,10.32326 3.27308,15.13648 v 26.17617 c 0,0.0296 0,0.95885 0.45875,1.92853 0.2293,0.48421 0.58081,0.98122 1.11675,1.35635 0.53382,0.37649 1.24742,0.62028 2.15307,0.61892 H 49.429 62.81043 c 0.90283,0.003 1.62122,-0.24241 2.15462,-0.61892 0.79996,-0.56544 1.18985,-1.39359 1.3819,-2.06263 0.19192,-0.67172 0.19192,-1.19991 0.19192,-1.22225 V 762.4157 c 0,-6.41741 2.13388,-13.87766 5.62243,-19.86236 1.74399,-2.99235 3.82298,-5.61633 6.13494,-7.56247 2.31197,-1.94751 4.84265,-3.21379 7.50344,-3.52325 3.20097,-0.37312 5.27996,-1.30692 6.5659,-2.58945 1.28581,-1.28255 1.73059,-2.89146 1.73059,-4.48887 0,-2.3538 -0.93712,-4.73401 -1.57339,-6.36192 -0.23989,-0.61144 -0.45325,-1.81409 -0.58815,-3.35123 -0.13829,-1.54051 -0.21336,-3.42912 -0.21336,-5.46805 0,-3.72028 0.24525,-7.9471 0.7589,-11.50352 0.26133,-1.7782 0.58194,-3.38918 0.97818,-4.67916 0.39469,-1.2893 0.86882,-2.25764 1.35467,-2.72826 3.50872,-3.47584 3.54287,-6.56233 3.53596,-6.62325 V 499.93826 l -0.0536,-0.0677 c 0,-9.9e-4 -0.0804,-0.17133 -0.22395,-0.48076 -0.49064,-1.08413 -1.73764,-3.85234 -2.90731,-6.78648 -1.16261,-2.92733 -2.25002,-6.04767 -2.42768,-7.73583"
       style="fill:none;fill-opacity:1;fill-rule:nonzero;stroke:#000000;stroke-width:1;stroke-miterlimit:4;stroke-dasharray:none;stroke-opacity:1"
       id="path1854"
       inkscape:connector-curvature="0"
       sodipodi:nodetypes="cscscccccccccscccccccccscccccccccccccccccscccccccccccscccccccssccccsccsccccccccc" />
    <path
       inkscape:connector-curvature="0"
       id="path13767"
       style="fill:none;fill-opacity:1;fill-rule:nonzero;stroke:#000000;stroke-width:1;stroke-miterlimit:4;stroke-dasharray:none;stroke-opacity:1"
       d="m 483.2894,228.17443 c -4.2973,2.29667 -8.6555,4.46949 -13.0565,6.5034 -3.587,1.65793 -5.8763,5.21881 -5.8763,9.13716 v 44.39669 c 0,3.29727 -2.4093,6.13802 -5.6995,6.65292 -13.6973,2.14273 -27.6537,2.14273 -41.3519,0 -3.2903,-0.5149 -5.6986,-3.35565 -5.6986,-6.65292 0,-14.7992 0,-29.5975 0,-44.39669 0,-3.91835 -2.2903,-7.47923 -5.8764,-9.13716 -4.4019,-2.03391 -8.76,-4.20673 -13.0565,-6.5034 -3.3081,-1.76851 -5.3759,-5.18788 -5.3759,-8.90978 V -20.633109 c 0,-3.75645 2.1053,-7.202335 5.4608,-8.954915 4.2384,-2.21262 8.5366,-4.303142 12.8769,-6.259199 3.6371,-1.638473 5.9711,-5.22417 5.9711,-9.179625 0,-14.790367 0,-29.579814 0,-44.370173 0,-3.298152 2.4083,-6.138041 5.6986,-6.652913 13.6982,-2.142738 27.6546,-2.142738 41.3519,0 3.2902,0.514872 5.6995,3.354761 5.6995,6.652913 v 44.370173 c 0,3.955455 2.334,7.541152 5.971,9.179625 4.3394,1.956057 8.6376,4.046579 12.8769,6.259199 3.3556,1.75258 5.4609,5.198465 5.4609,8.954915 V 219.26465 c 0,3.7219 -2.0678,7.14127 -5.376,8.90978" />
    <path
       inkscape:connector-curvature="0"
       id="path13533"
       style="fill:none;fill-opacity:1;fill-rule:nonzero;stroke:#000000;stroke-width:1;stroke-miterlimit:4;stroke-dasharray:none;stroke-opacity:1"
       d="m 364.73491,228.14661 -0.3756,0.10434 c -10.352,2.87944 -17.5057,12.22583 -17.5057,22.87148 v 28.37182 c 0,9.37223 -7.6743,16.96991 -17.1409,16.96991 h -18.1246 c -9.4667,0 -17.1409,-7.59768 -17.1409,-16.96991 v -28.37182 c 0,-10.64565 -7.1536,-19.99204 -17.5057,-22.87148 l -0.3765,-0.10434 c -4.1408,-1.15213 -7.0023,-4.89036 -7.0023,-9.14933 V -20.393682 c 0,-4.297316 2.9139,-8.059596 7.1058,-9.176063 l 0.017,-0.0048 c 10.4792,-2.791161 17.7625,-12.198198 17.7625,-22.941961 v -28.16311 c 0,-9.372242 7.6742,-16.969938 17.141,-16.969938 h 18.1244 c 9.4667,0 17.141,7.597696 17.141,16.969938 v 28.163145 c 0,10.743771 7.2823,20.150808 17.7625,22.941968 l 0.017,0.0048 c 4.191,1.116467 7.1049,4.878747 7.1049,9.176063 v 239.39092 c 0,4.25897 -2.8616,7.9972 -7.0031,9.14933" />
    <path
       inkscape:connector-curvature="0"
       id="path238"
       style="fill:none;fill-opacity:1;fill-rule:evenodd;stroke:#000000;stroke-width:1;stroke-miterlimit:4;stroke-dasharray:none;stroke-opacity:1"
       d="m 109.9475,238.75943 v -16.63557 -245.407442 -16.63687 c 0,0 -33.2303,-5.77949 -32.6047,-31.148878 0.8813,-35.45739 -45.1156,-35.45494 -44.2399,0 C 33.7304,-45.701794 0.5,-39.917376 0.5,-39.917376 v 16.601837 245.468859 16.60365 c 0,0 33.2298,5.78382 32.6036,31.15135 -0.877,35.45558 45.1174,35.45558 44.2398,0 -0.6268,-25.36939 32.6023,-31.15015 32.6023,-31.15015" />
    <path
       d="m 211.84767,-84.286287 c 5.8918,19.17033 7.0149,36.11596 23.571,48.06228 16.5566,11.94569 14.3133,165.859547 7.578,208.087557 -6.7353,42.22799 -28.9038,66.12235 -31.9913,98.62459 -3.2955,34.71198 -33.1874,34.70964 -36.484,0.004 -3.0863,-32.50458 -25.2554,-56.39836 -31.99,-98.62695 -6.7353,-42.228 -8.9794,-196.140067 7.5779,-208.087557 16.5555,-11.94568 17.6775,-28.89255 23.5723,-48.0611 5.5008,-17.898403 32.6636,-17.899013 38.1661,0"
       style="fill:none;fill-opacity:1;fill-rule:evenodd;stroke:#000000;stroke-width:1;stroke-miterlimit:4;stroke-dasharray:none;stroke-opacity:1"
       id="path26"
       inkscape:connector-curvature="0" />
    <g
       id="g1804"
       transform="matrix(0.06631658,0,0,-0.06565499,407.90185,528.52641)"
       style="fill:none;stroke:#000000;stroke-width:15.15496922;stroke-miterlimit:4;stroke-dasharray:none;stroke-opacity:1">
      <g
         id="g1806"
         clip-path="url(#clipPath1810-3)"
         style="fill:none;stroke:#000000;stroke-width:15.15496922;stroke-miterlimit:4;stroke-dasharray:none;stroke-opacity:1">
        <g
           id="g12480"
           style="fill:none;stroke:#000000;stroke-width:15.15496922;stroke-miterlimit:4;stroke-dasharray:none;stroke-opacity:1">
          <path
             inkscape:connector-curvature="0"
             id="path1802"
             style="fill:none;fill-opacity:1;fill-rule:nonzero;stroke:#000000;stroke-width:2.33463526;stroke-miterlimit:4;stroke-dasharray:none;stroke-opacity:1"
             d="m 951.28841,-587.97832 0.7702,0.0246 c -0.9674,31.47258 -2.9054,92.96966 -7.5053,152.54265 -2.3015,29.78726 -5.267,59.09388 -9.1152,83.93766 -3.85282,24.84993 -8.56369,45.21237 -14.44227,57.22833 -5.82774,11.89888 -10.51859,19.03606 -14.6225,23.99803 -3.0764,3.71879 -5.82004,6.20671 -8.41118,8.53288 -3.89132,3.49233 -7.42833,6.59645 -11.5461,13.13437 -4.1147,6.53791 -8.78706,16.52349 -14.76885,33.6509 -8.73931,25.0225 -17.57412,38.7361 -25.0425,46.2306 -7.46222,7.4946 -13.60423,8.7409 -16.74686,8.7332 -1.39416,0 -2.19215,-0.2388 -2.25531,-0.2588 l 0.22954,-0.7348 0.22799,0.7348 c -0.0632,0.02 -0.86114,0.2588 -2.2553,0.2588 -3.14264,0.01 -9.2831,-1.2386 -16.74532,-8.7332 -7.46839,-7.4945 -16.3032,-21.2081 -25.0425,-46.2306 -5.31629,-15.22489 -9.59891,-24.80685 -13.37623,-31.3386 -5.66753,-9.79301 -10.14733,-12.7477 -15.58686,-17.86681 -5.43954,-5.11141 -11.6524,-12.27015 -20.38554,-30.11077 -5.87858,-12.0175 -10.58946,-32.37994 -14.44227,-57.22833 -11.53994,-74.5205 -15.16784,-189.26678 -16.62054,-236.48027 -0.18024,-5.82466 -0.26342,-12.60597 -0.26342,-20.16833 0.002,-74.31718 8.10153,-224.06688 13.81989,-278.17415 3.15188,-29.79804 6.66578,-48.85567 11.84189,-63.65687 5.17456,-14.8012 12.02212,-25.31055 21.72116,-37.91652 9.58042,-12.45345 14.03403,-26.49675 17.59722,-40.27045 3.56782,-13.7706 6.22828,-27.2608 12.35488,-38.5451 6.20979,-11.4074 18.0301,-17.3723 28.22673,-20.5211 10.20894,-3.1457 18.85581,-3.48 18.89741,-3.4831 h 0.0308 0.0293 c 0.0416,0 8.68846,0.3374 18.89741,3.4831 10.19816,3.1488 22.01848,9.1137 28.22827,20.5211 6.1266,11.2843 8.78705,24.7745 12.35487,38.5451 3.5632,13.7737 8.01526,27.817 17.59568,40.27045 9.70058,12.60597 16.5466,23.11532 21.72271,37.91652 5.17764,14.8012 8.6915,33.85883 11.8419,63.65687 5.7183,54.10572 13.8183,203.85543 13.8199,278.17261 0,7.56236 -0.085,14.34521 -0.2635,20.16987 l -0.7702,-0.0246 -0.7687,-0.0231 c 0.1771,-5.80155 0.2619,-12.57055 0.2619,-20.12212 0,-74.21705 -8.1016,-224.01297 -13.8122,-278.00931 -3.1442,-29.75183 -6.6504,-48.70008 -11.76334,-63.3118 -5.11295,-14.60864 -11.8234,-24.91772 -21.48855,-37.48672 -9.78531,-12.72152 -14.28975,-27.00047 -17.86681,-40.82347 -3.57552,-13.8276 -6.2406,-27.2069 -12.21777,-38.1938 -5.89244,-10.8637 -17.31223,-16.6992 -27.32707,-19.7848 -5.00203,-1.542 -9.63896,-2.3986 -13.02037,-2.8669 -1.68994,-0.2341 -3.06562,-0.3712 -4.01611,-0.4513 -0.47602,-0.038 -0.84574,-0.063 -1.0953,-0.079 -0.24802,-0.015 -0.37126,-0.02 -0.3728,-0.02 l 0.0308,-0.7688 0.0293,0.7688 c 0,0 -0.12324,0.01 -0.37281,0.02 -1.86709,0.1109 -10.49702,0.7841 -20.02198,4.0084 -9.53266,3.2227 -19.90952,8.9888 -25.43533,19.1731 -5.97717,10.9869 -8.64379,24.3663 -12.21777,38.1939 -3.5786,13.8229 -8.08304,28.10191 -17.86681,40.82343 -9.66668,12.569 -16.3756,22.87808 -21.48854,37.48672 -5.11295,14.61172 -8.61915,33.55997 -11.76332,63.3118 -5.71067,53.99634 -13.81374,203.79534 -13.8122,278.01085 0,7.55157 0.0832,14.31903 0.26189,20.12058 0.96898,31.46796 2.9054,92.94347 7.50227,152.47178 2.29844,29.76261 5.26392,59.03843 9.10132,83.82058 3.83279,24.77445 8.56369,45.08143 14.30362,56.7862 5.79231,11.82648 10.42154,18.84966 14.42686,23.69302 3.00553,3.63252 5.66445,6.04649 8.2525,8.36804 3.879,3.47692 7.61319,6.76745 11.82032,13.4625 4.21175,6.6935 8.918,16.77613 14.91982,33.962 8.68846,24.8869 17.44471,38.3987 24.67894,45.6499 7.24192,7.2527 12.91716,8.2756 15.65464,8.2818 0.6085,0 1.07373,-0.052 1.37875,-0.1017 0.15251,-0.025 0.26497,-0.049 0.33583,-0.066 l 0.074,-0.018 h 0.0123 l 0.0647,0.2173 -0.0678,-0.2157 h 0.003 l 0.0647,0.2173 -0.0678,-0.2157 0.22954,-0.071 0.22799,0.071 -0.0693,0.2249 0.0662,-0.2265 h 0.003 l -0.0693,0.2249 0.0662,-0.2265 c 0.0231,0.01 0.65934,0.1911 1.80086,0.1911 2.73902,-0.01 8.41425,-1.0291 15.65618,-8.2818 7.23422,-7.2512 15.99047,-20.763 24.67894,-45.6499 5.33632,-15.27718 9.64666,-24.93925 13.49639,-31.6004 5.7692,-9.99636 10.5494,-13.21602 15.86569,-18.21805 5.31783,-5.00973 11.36125,-11.92199 20.05741,-29.66711 5.73994,-11.70477 10.47084,-32.01021 14.30362,-56.7862 11.5168,-74.3557 15.1524,-189.09582 16.6036,-236.29236 l 0.7687,0.0231"
             transform="matrix(6.4913652,0,0,6.4913652,1648.4408,10601.589)" />
          <path
             inkscape:connector-curvature="0"
             id="path1814"
             style="fill:none;fill-opacity:1;fill-rule:nonzero;stroke:#000000;stroke-width:15.15496922;stroke-miterlimit:4;stroke-dasharray:none;stroke-opacity:1"
             d="m 9676.38,3475.18 c -4169.9888,-3842.86082 71.7065,-68.3391 0,0 -860.9068,828.622 -1788.8393,1700.5875 -2676.49,2541.04 L 4363.85,3353.85"
             sodipodi:nodetypes="cccc" />
        </g>
      </g>
    </g>
  </g>
</svg>
