<?xml version="1.0" encoding="UTF-8" standalone="no"?>
<!-- Created with Inkscape (http://www.inkscape.org/) -->

<svg
   xmlns:dc="http://purl.org/dc/elements/1.1/"
   xmlns:cc="http://creativecommons.org/ns#"
   xmlns:rdf="http://www.w3.org/1999/02/22-rdf-syntax-ns#"
   xmlns:svg="http://www.w3.org/2000/svg"
   xmlns="http://www.w3.org/2000/svg"
   xmlns:sodipodi="http://sodipodi.sourceforge.net/DTD/sodipodi-0.dtd"
   xmlns:inkscape="http://www.inkscape.org/namespaces/inkscape"
   width="210mm"
   height="297mm"
   viewBox="0 0 210 297"
   version="1.1"
   id="svg13173"
   inkscape:version="0.92.4 5da689c313, 2019-01-14"
   sodipodi:docname="surf.svg">
  <defs
     id="defs13167">
    <clipPath
       id="clipPath1962-6"
       clipPathUnits="userSpaceOnUse">
      <path
         inkscape:connector-curvature="0"
         id="path1960-2"
         d="m 4747.49,8864.84 c -117.85,89.57 -207.42,207.43 -278.13,443.14 -70.71,235.71 -259.28,221.57 -259.28,221.57 0,0 -188.57,14.14 -259.28,-221.57 -70.71,-235.71 -160.28,-353.57 -278.14,-443.14 -117.86,-89.57 -268.71,-1008.83 -268.71,-1932.81 0,-923.98 56.57,-2300.52 198,-2522.1 141.42,-221.56 249.85,-419.56 273.42,-570.41 23.57,-150.86 -28.29,-202.71 334.71,-282.85 362.99,80.14 311.14,131.99 334.71,282.85 23.57,150.85 131.99,348.85 273.42,570.41 141.42,221.58 198,1598.12 198,2522.1 0,923.98 -150.86,1843.24 -268.72,1932.81" />
    </clipPath>
  </defs>
  <sodipodi:namedview
     id="base"
     pagecolor="#ffffff"
     bordercolor="#666666"
     borderopacity="1.0"
     inkscape:pageopacity="0.0"
     inkscape:pageshadow="2"
     inkscape:zoom="0.135111"
     inkscape:cx="1468.3023"
     inkscape:cy="-321.42605"
     inkscape:document-units="mm"
     inkscape:current-layer="layer1"
     showgrid="true"
     showborder="false"
     inkscape:window-width="1366"
     inkscape:window-height="714"
     inkscape:window-x="0"
     inkscape:window-y="54"
     inkscape:window-maximized="0" />
  <metadata
     id="metadata13170">
    <rdf:RDF>
      <cc:Work
         rdf:about="">
        <dc:format>image/svg+xml</dc:format>
        <dc:type
           rdf:resource="http://purl.org/dc/dcmitype/StillImage" />
        <dc:title />
      </cc:Work>
    </rdf:RDF>
  </metadata>
  <g
     inkscape:label="Layer 1"
     inkscape:groupmode="layer"
     id="layer1">
    <path
       inkscape:connector-curvature="0"
       id="path13439"
       style="fill:none;fill-opacity:1;fill-rule:nonzero;stroke:#000000;stroke-width:1.91315472;stroke-miterlimit:4;stroke-dasharray:none;stroke-opacity:1"
       d="m 489.43084,28.500272 c 4.91337,-60.461888 28.01452,-105.086547 40.86231,-125.711172 4.04135,-6.48732 13.30944,-6.48732 17.35078,0 12.84779,20.624625 35.94895,65.249284 40.86212,125.711172 8.10929,99.794378 -18.8748,221.333708 -26.98371,246.808728 -8.1091,25.47409 -22.55341,20.31954 -22.55341,20.31954 0,0 -14.4449,5.15455 -22.55399,-20.31954 -8.10968,-25.47502 -35.093,-147.01435 -26.9841,-246.808728" />
    <path
       inkscape:connector-curvature="0"
       id="path7341"
       style="fill:none;fill-opacity:1;fill-rule:nonzero;stroke:#000000;stroke-width:2.40224481;stroke-miterlimit:4;stroke-dasharray:none;stroke-opacity:1"
       d="M 50.238746,295.61021 25.720069,281.33806 c 0,0 -10.142498,-36.69919 -20.338257,-154.95856 C -4.813042,8.1199622 1.303878,-52.366546 50.238746,-101.30136 99.173406,-52.366546 105.29036,8.1199622 95.094611,126.3795 84.898937,244.63887 74.75741,281.33806 74.75741,281.33806 Z" />
    <path
       inkscape:connector-curvature="0"
       id="path8573"
       style="fill:none;fill-opacity:1;fill-rule:nonzero;stroke:#000000;stroke-width:3.29542303;stroke-miterlimit:4;stroke-dasharray:none;stroke-opacity:1"
       d="m 570.5158,774.81001 c 7.70193,0 19.29256,20.54228 22.3838,20.54228 6.78696,0 31.34356,-72.75948 31.34356,-199.37185 0,-138.18789 -43.90377,-197.33273 -53.72736,-197.33273 -9.82586,0 -53.72617,59.14484 -53.72617,197.33273 0,126.61237 24.55545,199.37185 31.34356,199.37185 3.09124,0 14.67956,-20.54228 22.38261,-20.54228" />
    <path
       inkscape:connector-curvature="0"
       id="path9101"
       style="fill:none;fill-opacity:1;fill-rule:nonzero;stroke:#000000;stroke-width:4.53625488;stroke-miterlimit:4;stroke-dasharray:none;stroke-opacity:1"
       d="m 453.19278,794.73187 c -32.89409,0 -56.17839,-151.16267 -49.89728,-273.13019 3.29031,-63.85615 36.22115,-122.33355 49.89728,-122.33355 13.67291,0 46.60533,58.4774 49.89565,122.33355 6.2811,121.96752 -17.00319,273.13019 -49.89565,273.13019" />
    <g
       id="g12487"
       transform="matrix(0.35277777,0,0,-0.35277777,-113.35662,430.93541)"
       style="fill:none;stroke:#000000;stroke-width:2.83464575;stroke-miterlimit:4;stroke-dasharray:none;stroke-opacity:1">
      <g
         transform="matrix(0.1540508,0,0,0.1540508,573.49484,-1584.1193)"
         id="g1956"
         style="fill:none;stroke:#000000;stroke-width:18.4007206;stroke-miterlimit:4;stroke-dasharray:none;stroke-opacity:1">
        <g
           clip-path="url(#clipPath1962-6)"
           id="g1958"
           style="fill:none;stroke:#000000;stroke-width:18.4007206;stroke-miterlimit:4;stroke-dasharray:none;stroke-opacity:1">
          <path
             inkscape:connector-curvature="0"
             id="path1964"
             style="fill:none;fill-opacity:1;fill-rule:nonzero;stroke:#000000;stroke-width:18.4007206;stroke-miterlimit:4;stroke-dasharray:none;stroke-opacity:1"
             d="m 4157.11,3409.79 h -141.47 v 6194.14 h 141.47 V 3409.79" />
          <path
             inkscape:connector-curvature="0"
             id="path1966"
             style="fill:none;fill-opacity:1;fill-rule:nonzero;stroke:#000000;stroke-width:18.4007206;stroke-miterlimit:4;stroke-dasharray:none;stroke-opacity:1"
             d="M 4404.06,3409.79 H 4262.6 v 6194.14 h 141.46 V 3409.79" />
        </g>
      </g>
      <path
         inkscape:connector-curvature="0"
         id="path1862"
         style="fill:none;fill-opacity:1;fill-rule:nonzero;stroke:#000000;stroke-width:2.83464575;stroke-miterlimit:4;stroke-dasharray:none;stroke-opacity:1"
         d="m 1304.851,-217.6949 0.4652,0.6131 c -18.0316,13.7183 -31.699,31.659 -42.575,67.8733 -4.9065,16.3771 -13.538,25.1133 -21.601,29.6856 -8.063,4.5768 -15.5144,5.0205 -18.1364,5.022 -0.6301,0 -0.9828,-0.026 -1.0013,-0.028 l 0.059,-0.7672 0.057,0.7672 c -0.017,0 -0.3697,0.028 -0.9998,0.028 -2.6235,0 -10.0734,-0.4452 -18.1364,-5.022 -8.063,-4.5723 -16.6945,-13.3085 -21.601,-29.6856 -10.876,-36.2143 -24.5433,-54.155 -42.575,-67.8733 -2.4756,-1.8979 -4.8264,-5.69985 -7.2327,-11.22411 -4.1902,-9.66206 -8.4189,-24.6204 -12.4303,-43.60562 -12.0268,-56.94333 -22.0355,-150.06704 -22.037,-243.53429 0,-71.18687 2.1798,-159.79535 7.0833,-234.89357 2.4509,-37.54989 5.5843,-71.71989 9.4695,-98.65568 1.9425,-13.4702 4.0731,-25.1303 6.4054,-34.512 2.3385,-9.38323 4.8572,-16.47727 7.664,-20.88466 21.7751,-34.09761 38.4295,-64.57964 42.0097,-87.57634 0.9012,-5.7615 1.0814,-10.59713 1.7238,-14.87203 0.4837,-3.2043 1.2355,-6.1051 2.7899,-8.7825 2.3338,-4.0238 6.4285,-7.436 13.8014,-10.6865 7.3821,-3.2551 18.0902,-6.3869 33.8418,-9.8654 l 0.1664,-0.037 0.1664,0.037 c 14.0001,3.0918 24.0165,5.9109 31.2538,8.784 5.4272,2.1567 9.2985,4.3442 12.1007,6.7243 4.2118,3.5647 5.9418,7.5978 6.8106,12.2486 0.8781,4.6569 0.9767,9.96861 1.9919,16.44953 3.5801,22.9967 20.233,53.47873 42.0081,87.57634 2.8068,4.40739 5.3271,11.50143 7.664,20.88466 8.1585,32.82053 13.8846,93.65211 17.5895,161.90277 3.7019,68.24297 5.3702,143.87112 5.3702,206.15848 0,71.21153 -5.8123,142.22895 -13.8984,197.19119 -4.0423,27.48112 -8.6531,50.94768 -13.3963,68.43399 -2.3724,8.74392 -4.7771,15.99201 -7.1726,21.51473 -2.4063,5.52426 -4.7571,9.32621 -7.2327,11.22411 l -0.4652,-0.6131 -0.4668,-0.6131 c 2.0643,-1.54976 4.4105,-5.19152 6.7505,-10.61103 8.2433,-18.98522 16.8594,-59.55296 23.3742,-110.86266 6.5194,-51.31894 10.9668,-113.4276 10.9668,-175.66413 0,-71.15452 -2.1798,-159.74297 -7.0801,-234.79344 -2.4494,-37.52369 -5.5813,-71.66443 -9.4572,-98.53705 -1.938,-13.43477 -4.0623,-25.05329 -6.3762,-34.35795 -2.3092,-9.30313 -4.8279,-16.30166 -7.4684,-20.42868 -21.7981,-34.16539 -38.5496,-64.68747 -42.233,-88.1679 -0.9135,-5.85855 -1.0968,-10.73576 -1.7238,-14.87976 -0.4699,-3.1118 -1.1816,-5.7985 -2.5989,-8.2386 -2.1212,-3.6526 -5.8708,-6.8615 -13.0912,-10.0503 -7.2126,-3.1827 -17.8483,-6.3053 -33.5523,-9.7715 l 0.1664,-0.7517 0.1664,0.7517 c -13.9585,3.0811 -23.9133,5.8894 -31.0197,8.7132 -5.3301,2.1151 -9.0505,4.2379 -11.6693,6.4655 -3.9191,3.3459 -5.4396,6.8922 -6.2961,11.3612 -0.8488,4.4613 -0.9551,9.80843 -1.9826,16.40026 -3.6818,23.48043 -20.4333,54.00251 -42.233,88.1679 -2.6389,4.12702 -5.1577,11.12555 -7.4669,20.42868 -8.1061,32.58174 -13.8476,93.41332 -17.5448,161.61315 -3.7003,68.20599 -5.3687,143.81566 -5.3672,206.07529 0,71.1268 5.8062,142.08722 13.88,196.96628 4.0362,27.43953 8.6392,50.85987 13.3593,68.25528 2.3585,8.69617 4.7494,15.88726 7.0987,21.30523 2.34,5.41951 4.6877,9.06127 6.752,10.61103 18.2797,13.88 32.209,32.2505 43.1188,68.6574 4.8203,16.0443 13.1513,24.3862 20.8862,28.789 7.738,4.3966 14.9229,4.8202 17.3754,4.8202 0.2943,0 0.5192,-0.01 0.6702,-0.012 0.1494,-0.01 0.2141,-0.011 0.2141,-0.011 h 0.059 0.057 c 0,0 0.066,0 0.2157,0.011 0.1494,0.01 0.3759,0.012 0.6701,0.012 2.451,0 9.6374,-0.4236 17.3754,-4.8202 7.7349,-4.4028 16.066,-12.7447 20.8862,-28.789 10.9099,-36.4069 24.8392,-54.7774 43.1188,-68.6574 l 0.4668,0.6131" />
    </g>
    <path
       d="m 228.15759,505.645 0.26895,-0.0375 c -3.80907,-27.57393 -12.25115,-43.65809 -19.75952,-52.84957 -7.50795,-9.19201 -14.07724,-11.48486 -14.11528,-11.49738 l -0.0891,-0.031 -0.0891,0.031 c -0.038,0.0123 -6.60736,2.30537 -14.11521,11.49738 -7.50837,9.19148 -15.94993,25.27564 -19.759,52.84956 -3.96997,28.73203 -6.26443,53.4311 -6.26443,80.46534 0,24.79361 1.92981,51.54852 6.2639,85.1809 4.53025,35.15199 10.14688,65.8654 16.03904,88.07431 2.94661,11.1056 5.96064,20.08389 8.94964,26.4381 1.49505,3.17733 2.98302,5.69902 4.46394,7.50773 1.48093,1.80592 2.95752,2.91304 4.45961,3.20683 l 0.0516,0.01 0.0516,-0.01 c 1.50211,-0.29379 2.97923,-1.40091 4.4596,-3.20683 2.58956,-3.16452 5.21068,-8.51566 7.83286,-15.73709 7.85894,-21.65858 15.67388,-60.14511 21.62026,-106.28305 4.33366,-33.63238 6.2634,-60.38729 6.2634,-85.1809 0,-27.03424 -2.29447,-51.73275 -6.26383,-80.46534 l -0.26895,0.0375 -0.26924,0.037 c 3.96727,28.71897 6.25856,53.38813 6.25856,80.39087 0,24.76479 -1.92719,51.49472 -6.25887,85.11134 -4.52777,35.13455 -10.14275,65.83175 -16.02499,88.00478 -2.94132,11.08594 -5.95026,20.04169 -8.91656,26.34584 -1.48262,3.15163 -2.95526,5.63977 -4.39272,7.39478 -1.43801,1.75792 -2.83683,2.76776 -4.14279,3.01742 l 0.0516,0.26683 0.0516,-0.26683 c -1.30591,-0.24966 -2.70479,-1.2595 -4.14222,-3.01742 -2.51785,-3.07157 -5.13352,-8.38663 -7.7421,-15.57811 -7.83286,-21.58029 -15.65047,-60.05433 -21.59206,-106.16729 -4.33192,-33.61662 -6.25904,-60.34655 -6.25904,-85.11134 0,-27.00274 2.29071,-51.6719 6.25845,-80.39087 3.79931,-27.4962 12.20499,-43.47548 19.64167,-52.58057 3.71887,-4.55253 7.19645,-7.38667 9.73978,-9.08223 1.27117,-0.84779 2.30971,-1.41083 3.0271,-1.76082 0.35923,-0.17498 0.63799,-0.29725 0.82603,-0.37496 0.0935,-0.0386 0.16468,-0.0663 0.21193,-0.0842 l 0.0679,-0.0251 -0.0891,-0.25704 -0.0891,0.25704 0.0679,0.0251 c 0.73097,0.2777 7.24641,2.93574 14.50475,12.17615 7.25747,9.24095 15.2614,25.07019 18.94217,51.70668 l 0.26924,-0.037"
       style="fill:none;fill-opacity:1;fill-rule:nonzero;stroke:#000000;stroke-width:1;stroke-miterlimit:4;stroke-dasharray:none;stroke-opacity:1"
       id="path1834"
       inkscape:connector-curvature="0" />
    <path
       inkscape:connector-curvature="0"
       id="path14013"
       style="fill:none;fill-opacity:1;fill-rule:nonzero;stroke:#000000;stroke-width:2.63331628;stroke-miterlimit:4;stroke-dasharray:none;stroke-opacity:1"
       d="m 3.258275,514.26505 c 5.30142,-61.07216 30.656104,-97.12998 44.070459,-112.2513 4.372386,-4.91985 12.411041,-4.91985 16.783344,0 13.424285,15.12132 38.769142,51.17914 44.076772,112.2513 8.58858,98.83171 -13.545803,235.6414 -22.133205,260.86984 -6.453304,18.95492 -20.748253,20.78676 -26.984727,20.52675 -2.229538,-0.0943 -4.459076,-0.0901 -6.700944,0 C 46.17677,795.91444 31.870651,794.05637 25.429747,775.1337 16.846085,749.90527 -5.325465,613.09566 3.258275,514.26387" />
    <path
       inkscape:connector-curvature="0"
       id="path13851"
       style="fill:none;fill-opacity:1;fill-rule:nonzero;stroke:#000000;stroke-width:1.90341687;stroke-miterlimit:4;stroke-dasharray:none;stroke-opacity:1"
       d="m 720.95171,29.867068 c 0,-64.717621 27.10823,-109.187744 41.11536,-127.846902 4.08803,-5.445276 12.25057,-5.445276 16.33855,0 14.00803,18.659158 41.11626,63.129281 41.11626,127.846902 0,99.613172 -18.77829,220.206982 -26.84676,245.552392 -8.06767,25.34439 -22.43835,20.21605 -22.43835,20.21605 0,0 -14.37063,5.12834 -22.43916,-20.21605 -8.06767,-25.34541 -26.8459,-145.93922 -26.8459,-245.552392" />
    <path
       inkscape:connector-curvature="0"
       id="path13689"
       style="fill:none;fill-opacity:1;fill-rule:nonzero;stroke:#000000;stroke-width:1.90341711;stroke-miterlimit:4;stroke-dasharray:none;stroke-opacity:1"
       d="m 115.72864,29.866922 c 0,-64.717477 27.10912,-109.187592 41.11624,-127.846772 4.08802,-5.44526 12.25058,-5.44526 16.33855,0 14.00726,18.65918 41.11649,63.129295 41.11649,127.846772 0,99.613188 -18.77922,220.207168 -26.84695,245.552578 -8.06771,25.34438 -22.43929,20.216 -22.43929,20.216 0,0 -14.37059,5.12838 -22.43825,-20.216 C 134.5078,250.07409 115.72864,129.48011 115.72864,29.866922" />
    <path
       inkscape:connector-curvature="0"
       id="path13611"
       style="fill:none;fill-opacity:1;fill-rule:nonzero;stroke:#000000;stroke-width:2.02932096;stroke-miterlimit:4;stroke-dasharray:none;stroke-opacity:1"
       d="m 602.96053,14.137849 c 5.31484,-61.165521 30.6987,-97.278344 44.14421,-112.421969 4.37465,-4.92731 12.42803,-4.92731 16.80266,0 13.44459,15.143625 38.82854,51.256448 44.1443,112.421969 8.60132,98.983091 -13.56582,236.000571 -22.16712,261.268011 -6.46221,18.98272 -20.78019,20.8183 -27.02376,20.55778 -2.23647,-0.0936 -4.47295,-0.0907 -6.71042,0 -6.20061,0.25386 -20.53098,-1.60751 -26.98175,-20.55879 -8.60129,-25.26744 -30.80943,-162.28484 -22.20812,-261.267935" />
    <path
       inkscape:connector-curvature="0"
       id="path562"
       style="fill:none;fill-opacity:1;fill-rule:evenodd;stroke:#000000;stroke-width:1.53015745;stroke-miterlimit:4;stroke-dasharray:none;stroke-opacity:1"
       d="M 896.74079,296.23492 Z M 848.60077,248.0949 c 0,26.47778 21.66326,48.14002 48.14002,48.14002 26.47471,0 48.13851,-21.66277 48.13851,-48.13845 4.1e-4,-114.07997 36.52665,-265.349343 -48.13851,-350.01449 -84.66411,84.664122 -48.14002,235.93351 -48.14002,350.01292" />
    <path
       inkscape:connector-curvature="0"
       id="path354"
       style="fill:none;fill-opacity:1;fill-rule:evenodd;stroke:#000000;stroke-width:1.54286516;stroke-miterlimit:4;stroke-dasharray:none;stroke-opacity:1"
       d="m 294.51957,-102.15192 c -22.0624,4.4e-4 -49.72582,45.047566 -49.72582,155.037916 0,109.984744 27.66388,243.265924 49.72582,243.265924 22.06109,0 50.11144,-135.01539 50.11099,-245.004045 0,-109.986415 -28.048,-153.299795 -50.11099,-153.299795" />
    <path
       inkscape:connector-curvature="0"
       id="path122"
       style="fill:none;fill-opacity:1;fill-rule:evenodd;stroke:#000000;stroke-width:1.69617045;stroke-miterlimit:4;stroke-dasharray:none;stroke-opacity:1"
       d="m 422.28926,296.15191 c 26.66448,0 48.27946,-89.1633 48.28166,-199.152108 0,-109.988953 -21.6182,-199.152852 -48.27996,-199.151712 -26.66448,0 -48.27878,89.163896 -48.28166,199.152255 0,109.988805 21.61887,199.152115 48.27996,199.151565" />
  </g>
</svg>
