<?xml version="1.0" encoding="UTF-8" standalone="no"?>
<!-- Created with Inkscape (http://www.inkscape.org/) -->

<svg
   xmlns:dc="http://purl.org/dc/elements/1.1/"
   xmlns:cc="http://creativecommons.org/ns#"
   xmlns:rdf="http://www.w3.org/1999/02/22-rdf-syntax-ns#"
   xmlns:svg="http://www.w3.org/2000/svg"
   xmlns="http://www.w3.org/2000/svg"
   xmlns:sodipodi="http://sodipodi.sourceforge.net/DTD/sodipodi-0.dtd"
   xmlns:inkscape="http://www.inkscape.org/namespaces/inkscape"
   width="210mm"
   height="297mm"
   viewBox="0 0 210 297"
   version="1.1"
   id="svg4208"
   inkscape:version="0.92.4 5da689c313, 2019-01-14"
   sodipodi:docname="doc.svg">
  <defs
     id="defs4202" />
  <sodipodi:namedview
     id="base"
     pagecolor="#ffffff"
     bordercolor="#666666"
     borderopacity="1.0"
     inkscape:pageopacity="0.0"
     inkscape:pageshadow="2"
     inkscape:zoom="0.25860497"
     inkscape:cx="66.099818"
     inkscape:cy="-49.121328"
     inkscape:document-units="mm"
     inkscape:current-layer="g5631"
     showgrid="false"
     inkscape:snap-object-midpoints="false"
     inkscape:snap-center="false"
     inkscape:window-width="1366"
     inkscape:window-height="714"
     inkscape:window-x="0"
     inkscape:window-y="54"
     inkscape:window-maximized="0"
     showborder="false" />
  <metadata
     id="metadata4205">
    <rdf:RDF>
      <cc:Work
         rdf:about="">
        <dc:format>image/svg+xml</dc:format>
        <dc:type
           rdf:resource="http://purl.org/dc/dcmitype/StillImage" />
        <dc:title></dc:title>
      </cc:Work>
    </rdf:RDF>
  </metadata>
  <g
     inkscape:label="Layer 1"
     id="layer1">
    <g
       id="g5631"
       transform="matrix(2.6708152,0,0,3.8222054,-22.340342,-130.12032)">
      <path
         style="display:inline;fill:#000000;stroke:none;stroke-width:0.01208238"
         d="m 90.919082,93.247055 c -1.287121,0.0036 -2.578483,0.01545 -3.8742,0.03561 -7.85e-4,7.29e-4 -7.85e-4,0.0012 -0.0015,0.0019 -1.409222,1.579968 -1.568481,1.811172 -1.568481,2.209372 0,0.398203 0.159259,0.629407 1.568481,2.209372 1.397874,1.592833 1.602421,1.772534 1.954727,1.772534 0.352311,0 0.556867,-0.179701 1.954725,-1.772534 1.409222,-1.579965 1.56797,-1.811169 1.56797,-2.209372 0,-0.3982 -0.158748,-0.629404 -1.56797,-2.209372 -0.01386,-0.0158 -0.02009,-0.02201 -0.03372,-0.03751 z m 9.989228,0.153369 c -1.445468,1.651145 -1.556027,2.022904 -1.125008,2.80006 0.363658,0.667965 3.113798,3.635099 3.454738,3.725025 0.60233,0.179831 0.90933,-0.05147 2.54585,-1.901214 1.63652,-1.84972 1.841,-2.196626 1.68191,-2.890276 -0.0385,-0.173688 -0.49871,-0.774972 -1.08057,-1.464365 -1.79899,-0.112569 -3.6261,-0.20234 -5.47692,-0.26923 z m -24.767695,0.22697 c -1.181311,0.05545 -2.360034,0.115962 -3.53649,0.181857 -0.863804,0.986491 -1.221575,1.46927 -1.221575,1.684688 0,0.23122 0.386373,0.744676 1.397838,1.887917 1.011458,1.14323 1.466094,1.580225 1.670663,1.580225 0.204559,0 0.659205,-0.436995 1.670663,-1.580225 1.011455,-1.143241 1.397838,-1.656697 1.397838,-1.887917 0,-0.229523 -0.38397,-0.740822 -1.378937,-1.866545 z m 38.032345,0.749277 c -0.50425,0.617728 -0.51346,0.758275 -0.51346,1.117268 0,0.565202 0.0112,0.577843 1.96597,2.787241 1.95475,2.2094 1.96608,2.2222 2.46614,2.2222 0.50004,0 0.51143,-0.0128 2.46614,-2.2222 1.49643,-1.691399 1.85198,-2.095281 1.93735,-2.445365 -2.59988,-0.585181 -5.37198,-1.08146 -8.32214,-1.459144 z M 61.928235,94.54286 c -1.461743,0.11875 -2.906751,0.244781 -4.340656,0.375113 -0.201833,0.277698 -0.297348,0.463291 -0.297348,0.575966 0,0.218373 0.34086,0.693331 1.170485,1.631035 0.829622,0.937721 1.250115,1.323344 1.44331,1.323344 0.193201,0 0.613684,-0.385623 1.44331,-1.323344 0.829621,-0.937704 1.170996,-1.412662 1.170996,-1.631035 0,-0.156648 -0.184666,-0.454159 -0.590097,-0.951079 z m -14.729416,1.436829 c -1.13948,0.129398 -2.260551,0.260915 -3.364827,0.394583 0.113719,0.137101 0.23569,0.281354 0.364275,0.429716 0.556872,0.616576 1.068326,1.130564 1.159247,1.130564 0.09091,0 0.602373,-0.513988 1.159245,-1.130564 0.263117,-0.303588 0.502056,-0.592181 0.68206,-0.824299 z m 81.772531,1.590197 c 0.33576,0.392058 0.71206,0.823576 1.12144,1.276335 2.06839,2.286469 2.26133,2.427979 3.00005,2.093989 0.15924,-0.0757 0.74785,-0.66115 1.43768,-1.394564 -1.72941,-0.692505 -3.58118,-1.357057 -5.55917,-1.97576 z m -3.5937,0.261631 c -0.68331,-0.01607 -1.35366,0.809235 -2.8197,2.453433 -2.46614,2.76175 -2.682,3.14712 -2.23879,4.14905 0.091,0.21837 1.10231,1.43863 2.23879,2.71031 2.94345,3.2884 2.68216,3.30152 5.71653,-0.14103 3.05711,-3.44254 3.05711,-3.13428 0,-6.57683 -1.51719,-1.72127 -2.21354,-2.578875 -2.89683,-2.594933 z M 110.9563,98.45354 c -0.32685,-0.02234 -0.68225,0.10211 -1.00189,0.367043 -0.51141,0.436744 -3.33003,3.648127 -3.61414,4.123407 -0.28411,0.48812 -0.22687,1.16885 0.14815,1.74689 0.38642,0.57804 3.22737,3.76381 3.64787,4.08495 0.14775,0.1156 0.45477,0.2056 0.68207,0.2056 0.22729,0 0.53381,-0.09 0.68154,-0.2056 0.42051,-0.32114 3.26199,-3.50691 3.64837,-4.08495 0.44323,-0.66797 0.44323,-1.28453 0,-1.95248 -0.38638,-0.57805 -3.22786,-3.763353 -3.64837,-4.084482 -0.16194,-0.120427 -0.3475,-0.186979 -0.5436,-0.200378 z m -14.750875,0.546051 c -0.09794,0.0033 -0.193445,0.03212 -0.297858,0.07788 -0.375032,0.166977 -3.579836,3.764089 -3.72757,4.187979 -0.136378,0.3982 -0.136517,0.53909 0.01125,0.95012 0.125015,0.34683 3.057129,3.71249 3.534448,4.05931 0.625065,0.43674 0.897906,0.24414 2.875378,-1.99096 2.420687,-2.74888 2.420687,-2.3892 0,-5.13811 -1.49589,-1.690753 -1.971206,-2.160439 -2.395638,-2.146212 z m -14.481116,0.630574 c -0.471639,0 -0.943152,0.603525 -2.011439,1.810995 -1.454678,1.6442 -1.625192,1.87527 -1.625192,2.27348 0,0.39821 0.170514,0.62975 1.625192,2.27395 2.136573,2.41492 1.886823,2.41492 4.023384,0 1.454683,-1.6442 1.625192,-1.87574 1.625192,-2.27395 0,-0.39821 -0.170509,-0.62928 -1.625192,-2.27348 -1.06828,-1.20747 -1.54031,-1.810995 -2.011945,-1.810995 z M 67.176262,100.2275 c -0.410551,-0.003 -0.816912,0.50066 -1.703362,1.509 -0.738707,0.83496 -1.363744,1.64406 -1.397839,1.78536 -0.03406,0.14129 -0.02249,0.37294 0.03423,0.51423 0.05682,0.1413 0.68186,0.912 1.397838,1.72126 1.738803,1.93963 1.602411,1.95222 3.398038,-0.0902 1.818355,-2.04241 1.818355,-1.86258 0,-3.90499 -0.903499,-1.02121 -1.318357,-1.53143 -1.728907,-1.53464 z m 69.292638,0.12297 c -1.79385,2.0351 -2.35324,2.83346 -2.35324,3.37698 0,0.10274 0.10237,0.4111 0.22735,0.70655 0.13638,0.30827 1.14823,1.54172 2.4779,3.03177 2.56841,2.8902 2.79565,3.04412 3.6821,2.55599 0.32958,-0.16699 1.27253,-1.143 2.72722,-2.80005 0.94644,-1.07926 1.55818,-1.79146 1.9353,-2.31478 -2.37969,-1.49094 -5.27029,-3.06764 -8.69663,-4.55646 z m -83.838131,0.40978 c -0.193196,0 -0.613689,0.38564 -1.443307,1.32336 -0.829628,0.9377 -1.170486,1.41266 -1.170486,1.63103 0,0.21837 0.340858,0.69379 1.170486,1.6315 0.829618,0.93771 1.250111,1.32334 1.443307,1.32334 0.193204,0 0.613684,-0.38563 1.44331,-1.32334 0.829629,-0.93771 1.170485,-1.41313 1.170485,-1.6315 0,-0.21837 -0.340856,-0.69333 -1.170485,-1.63103 -0.829626,-0.93772 -1.250106,-1.32336 -1.44331,-1.32336 z m -14.547025,0.64244 c -0.409127,0 -2.045154,1.86236 -2.045154,2.31195 0,0.2312 0.249997,0.60401 0.886422,1.32334 0.62506,0.70649 0.965529,0.98907 1.158732,0.98907 0.409128,0 2.04567,-1.86284 2.04567,-2.31241 0,-0.46244 -1.647906,-2.31195 -2.04567,-2.31195 z m -14.546511,0.51377 c -0.193205,0 -1.590961,1.57981 -1.590961,1.79818 0,0.09 0.318008,0.53948 0.715779,0.98906 0.397761,0.43673 0.795626,0.80958 0.875182,0.80958 0.1932,0 1.59096,-1.58027 1.59096,-1.79864 0,-0.21837 -1.39776,-1.79818 -1.59096,-1.79818 z m 123.204447,4.01372 c -0.0273,0.0121 -0.0504,0.0193 -0.0792,0.0328 -0.56823,0.26974 -4.52299,4.72706 -4.76166,5.36934 -0.20455,0.56519 -0.20469,0.68076 0.0113,1.24594 0.21885,0.5654 3.56517,4.35149 4.54094,5.17563 1.74116,-1.15584 3.16715,-2.23739 4.27831,-3.15428 0.1027,-0.0847 0.19769,-0.17493 0.28866,-0.26733 0.1182,-0.13519 0.22005,-0.25426 0.32239,-0.37369 0.74004,-0.984 0.92472,-2.25264 0.55076,-3.37792 -0.40418,-0.50411 -0.99608,-1.19354 -1.78716,-2.07452 -0.13322,-0.14922 -0.23475,-0.26171 -0.35507,-0.39601 -0.86269,-0.67362 -1.85883,-1.40625 -3.00925,-2.17994 z m -14.08363,0.4886 c -0.2273,-0.007 -0.4513,0.0385 -0.62178,0.13484 -0.35232,0.20553 -3.93236,4.22612 -4.12556,4.63718 -0.21587,0.47514 -0.20448,1.11783 0.0567,1.58022 0.11405,0.20595 1.06872,1.3489 2.12537,2.51753 2.06838,2.28647 2.26133,2.4275 3.00005,2.09352 0.43183,-0.20552 4.00044,-4.13607 4.27321,-4.70127 0.19321,-0.41106 0.20478,-1.04054 0.0342,-1.4259 -0.18183,-0.39821 -3.73891,-4.44445 -4.10257,-4.66281 -0.18183,-0.10919 -0.41237,-0.1669 -0.63966,-0.17331 z m -14.56644,0.50758 c -0.50006,0 -0.51139,0.0128 -2.46614,2.22221 -1.95472,2.20939 -1.96597,2.22202 -1.96597,2.78724 0,0.56518 0.0112,0.57784 1.96597,2.78722 1.95475,2.20941 1.96608,2.22268 2.46614,2.22268 0.50004,0 0.51143,-0.0133 2.46614,-2.22268 1.95473,-2.20938 1.96597,-2.22204 1.96597,-2.78722 0,-0.56522 -0.0112,-0.57785 -1.96597,-2.78724 -1.95471,-2.2094 -1.9661,-2.22221 -2.46614,-2.22221 z m -14.55366,0.53324 c -0.43959,0.0165 -0.88341,0.42906 -2.12997,1.81716 -1.932007,2.15801 -2.101998,2.50494 -1.624678,3.36558 0.363658,0.66795 3.113798,3.63511 3.454738,3.72503 0.60233,0.17984 0.90933,-0.0515 2.54585,-1.90121 1.63652,-1.84973 1.841,-2.19616 1.68191,-2.88981 -0.1023,-0.46242 -3.19366,-3.95651 -3.61416,-4.07212 -0.1108,-0.0313 -0.21226,-0.0485 -0.31369,-0.0447 z m -14.539874,0.49429 c -0.352306,0 -0.556854,0.17973 -1.954727,1.77254 -1.409223,1.57998 -1.56848,1.81117 -1.56848,2.20938 0,0.3982 0.159257,0.62939 1.56848,2.20937 1.397873,1.59281 1.602421,1.77252 1.954727,1.77252 0.352311,0 0.556868,-0.17971 1.954724,-1.77252 1.409223,-1.57998 1.567971,-1.81117 1.567971,-2.20937 0,-0.39821 -0.158748,-0.6294 -1.567971,-2.20938 -1.397856,-1.59281 -1.602413,-1.77254 -1.954724,-1.77254 z m -14.547025,0.51377 c -0.204569,0 -0.659205,0.43652 -1.670663,1.57974 -1.011465,1.14324 -1.397838,1.65719 -1.397838,1.88841 0,0.23121 0.386373,0.74515 1.397838,1.88838 1.011458,1.14323 1.466094,1.57975 1.670663,1.57975 0.204559,0 0.659205,-0.43652 1.670663,-1.57975 1.011455,-1.14323 1.397838,-1.65717 1.397838,-1.88838 0,-0.23122 -0.386383,-0.74517 -1.397838,-1.88841 -1.011458,-1.14322 -1.466104,-1.57974 -1.670663,-1.57974 z m -14.547025,0.51377 c -0.193195,0 -0.613688,0.38516 -1.44331,1.32286 -0.829625,0.93771 -1.170485,1.41313 -1.170485,1.63152 0,0.21836 0.34086,0.69379 1.170485,1.6315 0.829622,0.93771 1.250115,1.32287 1.44331,1.32286 0.193201,0 0.613684,-0.38515 1.44331,-1.32286 0.829621,-0.93771 1.170996,-1.41314 1.170996,-1.6315 0,-0.21839 -0.341375,-0.69381 -1.170996,-1.63152 -0.829626,-0.9377 -1.250109,-1.32286 -1.44331,-1.32286 z m -14.546512,0.51375 c -0.09091,0 -0.602375,0.51399 -1.159247,1.13057 -0.545505,0.62942 -1.000353,1.20728 -1.000353,1.31006 0,0.10273 0.454848,0.68062 1.000353,1.31004 0.556872,0.61658 1.068326,1.13057 1.159247,1.13057 0.09091,0 0.602373,-0.51399 1.159245,-1.13057 0.545505,-0.62942 0.999842,-1.20729 0.999842,-1.31004 0,-0.23122 -1.954528,-2.44063 -2.159087,-2.44063 z m -14.556732,0.66333 c -0.257128,0.002 -0.51293,0.24241 -0.933426,0.72412 -0.840984,0.96341 -0.841125,1.16861 0.01125,2.11916 0.852359,0.95056 1.034039,0.9506 1.875026,-0.0128 0.840992,-0.9634 0.841131,-1.16861 -0.01125,-2.11915 -0.42618,-0.47529 -0.684473,-0.71291 -0.9416,-0.7113 z m -14.525567,0.49288 c -0.227289,0 -1.148005,1.0275 -1.148005,1.28442 0,0.1156 0.216179,0.44955 0.488936,0.74499 0.261384,0.29544 0.556918,0.53941 0.647829,0.53941 0.215933,0 1.136255,-1.02753 1.136255,-1.27159 0,-0.25691 -0.909081,-1.29723 -1.125015,-1.29723 z m 123.652005,2.99569 c -0.55858,-0.029 -1.11432,0.52523 -3.11806,2.75874 -2.07974,2.33785 -2.6935,3.18593 -2.6935,3.76396 0,0.10274 0.10237,0.41111 0.22735,0.70655 0.11494,0.25979 0.8684,1.19152 1.89291,2.36512 3.43263,-1.47723 6.33544,-3.04477 8.73087,-4.53271 -1.23128,-1.60119 -4.15953,-4.79356 -4.63442,-4.96194 -0.14703,-0.0554 -0.27625,-0.093 -0.40515,-0.0997 z m -14.54957,0.62677 c -0.68331,-0.0161 -1.35366,0.80924 -2.8197,2.45343 -2.46614,2.76174 -2.682,3.14712 -2.23879,4.14905 0.091,0.21837 1.10231,1.43863 2.23879,2.71032 2.94345,3.2884 2.68216,3.30104 5.71653,-0.1415 3.05711,-3.44255 3.05711,-3.1343 0,-6.57684 -1.51719,-1.72127 -2.21354,-2.5784 -2.89683,-2.59446 z m -14.42135,0.62201 c -0.32685,-0.0224 -0.68225,0.1021 -1.00189,0.36705 -0.51141,0.43674 -3.33003,3.64814 -3.61414,4.12341 -0.28411,0.48813 -0.22687,1.16886 0.14815,1.74689 0.38642,0.57804 3.22737,3.76333 3.64787,4.08447 0.14775,0.11561 0.45477,0.20559 0.68207,0.20559 0.22729,0 0.53381,-0.0899 0.68154,-0.20559 0.42051,-0.32114 3.26199,-3.50643 3.64837,-4.08447 0.44323,-0.66795 0.44323,-1.28454 0,-1.95249 -0.38638,-0.57805 -3.22786,-3.76381 -3.64837,-4.08494 -0.16194,-0.12043 -0.3475,-0.18651 -0.5436,-0.19992 z m -14.750875,0.54559 c -0.09794,0.003 -0.193445,0.0326 -0.297858,0.0783 -0.375032,0.16701 -3.579836,3.76363 -3.72757,4.18751 -0.136378,0.3982 -0.136517,0.53955 0.01125,0.9506 0.125015,0.34683 3.057129,3.71201 3.534448,4.05883 0.625065,0.43675 0.897906,0.24414 2.875378,-1.99095 2.420687,-2.7489 2.420687,-2.38921 0,-5.1381 -1.49589,-1.69077 -1.971206,-2.16046 -2.395638,-2.14623 z m -14.481116,0.63057 c -0.471639,0 -0.943152,0.60353 -2.011439,1.81099 -1.454678,1.6442 -1.625192,1.87575 -1.625192,2.27396 0,0.39821 0.170514,0.62927 1.625192,2.27347 2.136573,2.41492 1.886823,2.41492 4.023384,0 1.454683,-1.6442 1.625192,-1.87526 1.625192,-2.27347 0,-0.39821 -0.170509,-0.62976 -1.625192,-2.27396 -1.06828,-1.20746 -1.54031,-1.81099 -2.011945,-1.81099 z m -14.548047,0.59734 c -0.410551,-0.003 -0.816912,0.50109 -1.703362,1.50947 -0.738707,0.83496 -1.363744,1.64406 -1.397839,1.78535 -0.03406,0.1413 -0.02249,0.37247 0.03423,0.51378 0.05682,0.14128 0.68186,0.91197 1.397838,1.72124 1.738803,1.93964 1.602411,1.9526 3.398038,-0.0898 1.818355,-2.04241 1.818355,-1.86258 0,-3.90498 -0.903499,-1.0212 -1.318357,-1.53191 -1.728907,-1.53512 z m -14.545493,0.53323 c -0.193196,0 -0.613689,0.38515 -1.443307,1.32286 -0.829628,0.9377 -1.170486,1.41314 -1.170486,1.63152 0,0.21836 0.340858,0.69331 1.170486,1.63103 0.829618,0.9377 1.250111,1.32335 1.443307,1.32335 0.193204,0 0.613684,-0.38565 1.44331,-1.32335 0.829629,-0.93772 1.170485,-1.41267 1.170485,-1.63103 0,-0.21838 -0.340856,-0.69382 -1.170485,-1.63152 -0.829626,-0.93771 -1.250106,-1.32286 -1.44331,-1.32286 z m -14.547025,0.64197 c -0.409127,0 -2.045154,1.86282 -2.045154,2.31241 0,0.23122 0.249997,0.60353 0.886422,1.32286 0.62506,0.70649 0.965529,0.98907 1.158732,0.98907 0.409128,0 2.04567,-1.86235 2.04567,-2.31193 0,-0.46243 -1.647906,-2.31241 -2.04567,-2.31241 z m -14.546511,0.51375 c -0.193205,0 -1.590961,1.58028 -1.590961,1.79866 0,0.09 0.318008,0.53947 0.715779,0.98905 0.397761,0.43675 0.795626,0.80911 0.875182,0.80911 0.1932,0 1.59096,-1.5798 1.59096,-1.79816 0,-0.21838 -1.39776,-1.79866 -1.59096,-1.79866 z m 109.120817,4.50233 c -0.2273,-0.007 -0.4513,0.0385 -0.62178,0.13485 -0.20593,0.12013 -1.50948,1.53959 -2.59999,2.78391 1.71502,-0.54804 3.32965,-1.13132 4.85412,-1.7355 -0.49121,-0.53497 -0.8859,-0.94583 -0.99269,-1.00995 -0.18183,-0.10919 -0.41237,-0.16691 -0.63966,-0.17331 z m -14.56644,0.50759 c -0.50006,0 -0.51139,0.0128 -2.46614,2.22219 -1.95472,2.20939 -1.96597,2.22204 -1.96597,2.78724 0,0.28168 0.003,0.42684 0.24779,0.77444 2.98874,-0.37392 5.7927,-0.87177 8.42433,-1.45867 -0.22054,-0.34355 -0.69787,-0.88682 -1.77387,-2.10301 -1.95471,-2.20939 -1.9661,-2.22219 -2.46614,-2.22219 z m -14.55366,0.53322 c -0.43959,0.0165 -0.88341,0.42908 -2.12997,1.81717 -1.932007,2.15801 -2.101998,2.50494 -1.624678,3.36558 0.103627,0.19034 0.409618,0.57453 0.789858,1.0185 2.08653,-0.0722 4.1438,-0.17275 6.16459,-0.30294 0.75784,-0.92802 0.84838,-1.25694 0.72805,-1.78155 -0.1023,-0.46244 -3.19366,-3.95651 -3.61416,-4.07212 -0.1108,-0.0313 -0.21226,-0.0485 -0.31369,-0.0447 z m -14.539874,0.4943 c -0.352306,0 -0.556854,0.17972 -1.954727,1.77254 -1.409223,1.57997 -1.56848,1.81117 -1.56848,2.20937 0,0.35813 0.179274,0.6342 1.23026,1.82476 1.520976,0.0254 3.037406,0.042 4.546551,0.0447 1.089008,-1.23164 1.269091,-1.50663 1.269091,-1.86941 0,-0.39819 -0.158748,-0.62939 -1.567971,-2.20936 -1.397856,-1.59281 -1.602413,-1.77254 -1.954724,-1.77254 z m -14.547025,0.51376 c -0.204569,0 -0.659205,0.437 -1.670663,1.58023 -1.011465,1.14323 -1.397838,1.6567 -1.397838,1.88792 0,0.18417 0.261718,0.56401 0.872627,1.28203 1.397562,0.0798 2.798268,0.15346 4.202712,0.21841 0.741702,-0.85691 1.061663,-1.29933 1.061663,-1.50044 0,-0.23122 -0.386383,-0.74469 -1.397838,-1.88792 -1.011458,-1.14323 -1.466104,-1.58023 -1.670663,-1.58023 z m -14.547025,0.51376 c -0.193195,0 -0.613688,0.38565 -1.44331,1.32336 -0.829625,0.9377 -1.170485,1.41266 -1.170485,1.63103 0,0.0439 0.01779,0.10187 0.04649,0.16808 1.608135,0.14735 3.229295,0.28987 4.87251,0.4226 0.208436,-0.28503 0.309098,-0.47627 0.309098,-0.59068 0,-0.21837 -0.341375,-0.69333 -1.170996,-1.63103 -0.829626,-0.93771 -1.250109,-1.32336 -1.443311,-1.32336 z m -14.546512,0.51378 c -0.09091,0 -0.602375,0.51398 -1.159247,1.13055 -0.02354,0.0272 -0.04324,0.0519 -0.06642,0.0788 0.89567,0.10799 1.803909,0.21388 2.722615,0.31908 -0.587586,-0.69646 -1.371374,-1.52846 -1.496952,-1.52846 z"
         id="path1277"
         inkscape:connector-curvature="0"
         inkscape:label="grip"
         sodipodi:nodetypes="cccscscsccccccccccccssscsccscscccccscscsccccscccccccccccccccccccsccccccccccccccscsscssscccccccccsccccccscscscscssscssssscssscccccccccccccsccccccccsscscscsssccccccccscscscscsssscscscsscscccscsscscscsscccccccsscsssccscccccccccccccccccsccccccccccccccscsccscsccccccccscscscscssscssssscssssccccsscsccssccccccccscsccscsscsccssssssccscsscccs" />
      <path
         inkscape:connector-curvature="0"
         id="path13611"
         style="display:inline;fill:none;fill-opacity:1;fill-rule:nonzero;stroke:#000000;stroke-width:1;stroke-miterlimit:4;stroke-dasharray:none;stroke-opacity:1"
         d="m 113.02425,131.21206 c 22.60566,-1.96427 35.9523,-11.34569 41.54912,-16.31492 1.82104,-1.61678 1.82104,-4.59316 0,-6.20994 -5.59682,-4.96888 -18.94346,-14.350297 -41.54912,-16.314916 -36.582346,-3.178881 -83.497639,1.835891 -92.836019,5.014769 -7.01569,2.388315 -11.9199256,12.052517 -11.8236156,14.360037 0.0346,0.8142 0.03377,-0.82691 0,0 -0.0938,2.29165 4.8196556,11.97596 11.8237056,14.36003 9.33838,3.17888 56.25367,8.28382 92.836019,5.10494"
         inkscape:label="planche-2"
         sodipodi:nodetypes="ccccccccc" />
    </g>
  </g>
</svg>
