<?xml version="1.0" encoding="UTF-8" standalone="no"?>
<!-- Created with Inkscape (http://www.inkscape.org/) -->

<svg
   xmlns:dc="http://purl.org/dc/elements/1.1/"
   xmlns:cc="http://creativecommons.org/ns#"
   xmlns:rdf="http://www.w3.org/1999/02/22-rdf-syntax-ns#"
   xmlns:svg="http://www.w3.org/2000/svg"
   xmlns="http://www.w3.org/2000/svg"
   xmlns:sodipodi="http://sodipodi.sourceforge.net/DTD/sodipodi-0.dtd"
   xmlns:inkscape="http://www.inkscape.org/namespaces/inkscape"
   width="210mm"
   height="297mm"
   viewBox="0 0 210 297"
   version="1.1"
   id="svg13886"
   inkscape:version="0.92.4 5da689c313, 2019-01-14"
   sodipodi:docname="cruiser.svg">
  <defs
     id="defs13880" />
  <sodipodi:namedview
     id="base"
     pagecolor="#ffffff"
     bordercolor="#666666"
     borderopacity="1.0"
     inkscape:pageopacity="0.0"
     inkscape:pageshadow="2"
     inkscape:zoom="0.16"
     inkscape:cx="2141.5249"
     inkscape:cy="256.32676"
     inkscape:document-units="mm"
     inkscape:current-layer="layer1"
     showgrid="true"
     showborder="false"
     inkscape:window-width="1366"
     inkscape:window-height="714"
     inkscape:window-x="0"
     inkscape:window-y="54"
     inkscape:window-maximized="0">
    <inkscape:grid
       type="xygrid"
       id="grid14448"
       color="#bbbbbb"
       opacity="0.1254902"
       empcolor="#b1b1ff"
       empopacity="0.25098039" />
  </sodipodi:namedview>
  <metadata
     id="metadata13883">
    <rdf:RDF>
      <cc:Work
         rdf:about="">
        <dc:format>image/svg+xml</dc:format>
        <dc:type
           rdf:resource="http://purl.org/dc/dcmitype/StillImage" />
        <dc:title></dc:title>
      </cc:Work>
    </rdf:RDF>
  </metadata>
  <g
     inkscape:label="Layer 1"
     inkscape:groupmode="layer"
     id="layer1">
    <path
       inkscape:connector-curvature="0"
       id="path7517"
       style="fill:none;fill-opacity:1;fill-rule:nonzero;stroke:#000000;stroke-width:2.56446266;stroke-miterlimit:4;stroke-dasharray:none;stroke-opacity:1"
       d="m 648.50533,297 c -16.54385,0 -26.31985,-1.5061 -31.58442,-16.9229 -6.84121,-20.03435 -17.29577,-195.520779 -15.41577,-264.704578 1.879,-69.183312 15.415,-115.808062 47.00019,-115.808062 31.58443,0 45.12044,46.62475 47.0002,115.808062 1.88,69.183799 -8.57352,244.670228 -15.41577,264.704578 C 674.82543,295.4939 665.04946,297 648.50533,297" />
    <path
       inkscape:connector-curvature="0"
       id="path8221"
       style="fill:none;fill-opacity:1;fill-rule:nonzero;stroke:#000000;stroke-width:3.21020746;stroke-miterlimit:4;stroke-dasharray:none;stroke-opacity:1"
       d="m 510.44018,295.38868 c -17.41634,0 -37.65413,0.94348 -44.24404,-26.82642 -6.58991,-27.77087 -14.59104,-99.78577 -14.59104,-214.63159 0,-114.845816 20.71002,-155.32557 58.83508,-155.32557 38.12539,0 58.8354,40.479754 58.8354,155.32557 0,114.84582 -8.00112,186.86072 -14.59103,214.63159 -6.58992,27.7699 -26.82867,26.82642 -44.24437,26.82642" />
    <path
       inkscape:connector-curvature="0"
       id="path8397"
       style="fill:none;fill-opacity:1;fill-rule:nonzero;stroke:#000000;stroke-width:3.21022034;stroke-miterlimit:4;stroke-dasharray:none;stroke-opacity:1"
       d="m 61.222112,295.39489 c -11.978616,0 -29.591169,-8.33171 -39.522949,-8.33171 -6.772281,0 -9.722473,-41.52404 -11.979579,-60.25099 -2.4394464,-20.2241 -8.1144738,-82.74914 -8.1144738,-139.191555 0,-56.440167 7.7032446,-118.964986 10.1439748,-139.192585 2.254538,-18.721041 5.206978,-41.488887 11.977011,-41.488887 9.933385,0 25.5174,-8.334053 37.496016,-8.334053 11.980542,0 27.56584,8.334053 37.496657,8.334053 6.773561,0 9.722471,22.767846 11.980871,41.488887 2.43688,20.227599 10.14141,82.752418 10.14141,139.192585 0,56.442415 -5.67728,118.967455 -8.11448,139.191555 -2.25903,18.72695 -5.20698,60.25099 -11.9783,60.25099 -9.931779,0 -27.545616,8.33171 -39.526158,8.33171" />
    <path
       inkscape:connector-curvature="0"
       id="path8749"
       style="fill:none;fill-opacity:1;fill-rule:nonzero;stroke:#000000;stroke-width:3.72789001;stroke-miterlimit:4;stroke-dasharray:none;stroke-opacity:1"
       d="m 214.17414,-101.13605 c -32.24774,0 -62.31019,19.676922 -62.31019,130.633098 0,67.502398 7.10424,75.975512 7.10424,137.193062 0,31.70198 -7.10536,128.44594 55.20595,128.44594 62.31019,0 55.20483,-96.74396 55.20483,-128.44594 0,-61.21755 7.10424,-69.690664 7.10424,-137.193062 0,-110.956176 -30.06245,-130.633098 -62.30907,-130.633098" />
    <path
       inkscape:connector-curvature="0"
       id="path8925"
       style="fill:none;fill-opacity:1;fill-rule:nonzero;stroke:#000000;stroke-width:4.01660538;stroke-miterlimit:4;stroke-dasharray:none;stroke-opacity:1"
       d="m 364.95292,294.9917 c -12.51453,0 -31.46528,-5.51922 -36.26713,-9.41854 -5.07298,-4.11943 -4.92557,-10.062 -4.92557,-10.062 C 317.55537,265.23508 302.0083,167.738 302.0083,84.66938 c 0,-83.06553 15.54707,-155.90474 21.75192,-166.18066 0,0 -0.14861,-5.94128 4.92557,-10.06328 4.80185,-3.89808 23.7526,-9.41714 36.26713,-9.41714 12.51173,0 31.45966,5.51906 36.26312,9.41714 5.07257,4.122 4.92557,10.06328 4.92557,10.06328 6.20766,10.27592 21.75313,83.11513 21.75313,166.18066 0,83.06862 -15.54547,180.5657 -21.75313,190.84178 0,0 0.14861,5.94257 -4.92557,10.062 -4.80346,3.89932 -23.75139,9.41854 -36.26312,9.41854" />
    <path
       style="fill:none;stroke:#000000;stroke-width:1.84164691;stroke-miterlimit:4;stroke-dasharray:none;stroke-opacity:1"
       inkscape:connector-curvature="0"
       id="path24"
       d="m 806.30681,-102.07918 h -0.018 c -32.8213,0 -40.3427,7.234361 -46.2802,29.204288 -5.2489,19.419982 -8.2244,43.724381 -8.8449,59.236388 -0.5458,13.64347322 0,141.921364 0.018,143.216044 l 2.7586,83.73305 c 0,0.26244 0.3553,30.9358 14.4419,64.98601 6.7966,16.42694 28.8411,17.70154 35.4357,17.70154 1.2285,0 2.0646,-0.0423 2.3772,-0.0608 0.43,0.0368 1.8464,0.14181 3.8831,0.14181 7.5864,0 21.2723,-1.40647 27.695,-10.82705 8.9274,-13.09392 16.5658,-34.96385 18.1622,-52.00203 1.6392,-17.48901 2.4429,-118.13354 2.4766,-122.40985 v -121.529909 -0.0663 c -0.1602,-1.951593 -3.9851,-47.941384 -8.4012,-61.189271 l -0.2851,-0.775702 c -4.3583,-13.116025 -9.7792,-29.358248 -43.4085,-29.358248 z m -2.4948,394.82626 c -6.085,0 -26.4074,-1.13169 -32.434,-15.69783 -13.8463,-33.47082 -14.1938,-63.51379 -14.1958,-63.81343 l -2.7586,-83.74005 c 0,-1.2468 -0.5542,-129.47330513 -0.018,-143.045875 0.4574,-11.439205 2.8125,-36.646563 8.7345,-58.559399 3.2237,-11.927058 6.4001,-19.317955 15.8741,-23.262394 6.0228,-2.507403 14.5901,-3.622152 27.3325,-3.623809 l 0.075,-1.624333 v 1.624333 c 31.1851,0 36.0246,14.45877 40.262,27.216779 l 0.2559,0.860233 c 4.2197,12.65856 8.0406,58.339138 8.2095,60.362924 V 110.8281 c 0,1.03298 -0.8354,104.76945 -2.4623,122.11942 -1.5509,16.5542 -8.958,37.78212 -17.6111,50.47457 -5.7902,8.49147 -19.42,9.40824 -25.0113,9.40824 -2.2401,0 -3.689,-0.13628 -3.7031,-0.13813 l -0.1326,-0.0184 -0.1363,0.0184 c 0,3.7e-4 -0.8649,0.0589 -2.2883,0.0589 z"
       sodipodi:nodetypes="cscccccscscccccccccscccccscccccccccscccs" />
    <path
       style="fill:none;stroke:#000000;stroke-width:1.83727014;stroke-miterlimit:4;stroke-dasharray:none;stroke-opacity:1"
       inkscape:connector-curvature="0"
       id="path10"
       d="m 1248.5496,-102.08137 c -16.0151,0 -28.5055,7.569007 -37.1253,22.49646 -4.9672,8.601731 -7.5703,17.981725 -8.8782,24.336112 -0.7687,3.728183 -1.17,6.765937 -1.3716,8.658681 -0.2936,2.74875 -0.2838,3.63542 -0.169,4.066996 0.3746,8.894587 1.5464,189.239191 2.1208,284.708911 -0.026,0.92156 -0.4841,24.0313 14.6262,39.83385 8.6747,9.07151 20.6971,13.8023 35.733,14.06025 l 0.057,0.001 h 0.057 c 0.5108,-0.0276 12.6577,-0.75512 25.1869,-8.2192 11.598,-6.90796 25.6155,-21.10693 26.5321,-49.5172 1.7103,-53.00872 -2.5487,-277.818955 -2.5921,-280.083582 -0.018,-0.617674 -0.492,-14.964564 -7.2087,-29.663087 -6.2675,-13.715589 -19.3394,-30.169451 -46.0197,-30.667901 -0.3157,0 -0.6074,-0.0184 -0.9483,0 z m -44.3774,58.934861 c -0.018,-0.252258 1.3436,-27.868455 17.0114,-44.26995 7.2708,-7.610524 16.4783,-11.515643 27.3668,-11.515643 0,0 0,0 0,0 0.2903,0 0.5877,0.04777 0.8821,0.05328 20.0344,0.374619 34.5325,10.049502 43.0927,28.711023 6.4706,14.106924 6.9527,28.349438 6.956,28.491276 0.042,2.248459 4.3005,226.980793 2.5925,279.907383 -0.6961,21.5793 -9.0533,37.31827 -24.8394,46.77415 -11.4541,6.86129 -22.9031,7.77203 -23.7639,7.83156 -14.0985,-0.25538 -25.3232,-4.64205 -33.3646,-13.04004 -14.1764,-14.80564 -13.7518,-37.35205 -13.7459,-37.57841 0,-0.76541 -0.4338,-72.05902 -0.9115,-142.488766 -0.2813,-41.364854 -0.5236,-74.342575 -0.72,-98.0161616 -0.1176,-14.0576844 -0.219,-24.9486564 -0.3033,-32.3699504 -0.1084,-9.49207 -0.1378,-12.037966 -0.3642,-12.935659 0.064,0.152494 0.099,0.30462 0.1047,0.445356 z" />
    <path
       style="fill:none;stroke:#000000;stroke-width:1.83696985;stroke-miterlimit:4;stroke-dasharray:none;stroke-opacity:1"
       inkscape:connector-curvature="0"
       id="path4"
       d="m 966.28523,296.08144 c 0,0 0,0 0,0 0.28455,0 0.56965,-0.0625 0.85218,-0.0661 20.6253,-0.17084 36.45959,-9.43101 41.59519,-15.20828 10.6247,-11.95261 7.4973,-84.09978 7.3224,-87.94584 l 1.2947,-50.49739 c 0.037,-0.97653 3.6614,-99.995484 2.1911,-147.0679842 -0.7919,-25.3189998 -6.0269,-48.5317998 -14.7416,-65.3587998 -10.41679,-20.1147 -25.73637,-31.172296 -44.30281,-31.974496 -0.6637,-0.029 -1.3195,-0.044 -1.97071,-0.044 -18.99022,0 -33.73393,11.844896 -43.82201,35.205496 -10.1373,23.4733 -12.9743,52.5114 -13.5699,72.7380998 -1.4867,50.4528002 5.2289,131.0334742 5.4033,133.0974842 l 2.2637,53.18175 c 0,0.79376 0.042,15.35393 0.324,32.22964 0.4064,24.35601 1.8546,48.24158 9.6461,57.57338 8.07333,9.66944 30.2889,14.13567 47.51308,14.13567 z m -7.759,-394.922594 c 0.60474,0 1.21443,0.018 1.83073,0.04 17.58789,0.7601 31.57274,10.9292 41.56604,30.2266 8.496,16.4058 13.6031,39.1228 14.3794,63.9681998 1.4679,46.9636002 -2.1533,145.8684742 -2.1902,146.8619042 l -1.2982,50.62304 v 0.0588 c 0.9527,20.7256 1.641,76.52265 -6.5043,85.68656 -4.7664,5.36193 -19.62346,13.92845 -39.20003,14.09047 -0.27426,0 -0.55091,0 -0.82572,0 -17.01881,0 -37.95052,-4.43518 -45.02726,-12.91096 -7.16602,-8.58195 -8.51652,-32.86614 -8.89292,-55.48787 -0.2879,-17.2464 -0.3241,-32.06909 -0.3241,-32.21751 v -0.0661 l -2.2721,-53.31513 c -0.068,-0.81523 -6.8887,-82.095854 -5.3963,-132.7623542 0.7239,-24.5846998 6.7696,-104.8000998 54.15368,-104.8000998 z" />
    <path
       inkscape:connector-curvature="0"
       id="path454"
       style="fill:none;fill-opacity:1;fill-rule:evenodd;stroke:#000000;stroke-width:1.60201275;stroke-miterlimit:4;stroke-dasharray:none;stroke-opacity:1"
       d="m 1101.2021,296.19387 v 0 c 27.7196,3.2e-4 50.3948,-22.67473 50.3948,-50.39484 V -51.802075 c 0,-27.718986 -22.6774,-50.396435 -50.3969,-50.396915 v 0 c -27.7191,0 -50.3996,22.680492 -50.399,50.398998 V 245.80159 c 0,27.71947 22.6799,50.39901 50.3974,50.3974" />
  </g>
</svg>
