<?xml version="1.0" encoding="UTF-8" standalone="no"?>
<!-- Created with Inkscape (http://www.inkscape.org/) -->

<svg
   xmlns:dc="http://purl.org/dc/elements/1.1/"
   xmlns:cc="http://creativecommons.org/ns#"
   xmlns:rdf="http://www.w3.org/1999/02/22-rdf-syntax-ns#"
   xmlns:svg="http://www.w3.org/2000/svg"
   xmlns="http://www.w3.org/2000/svg"
   xmlns:sodipodi="http://sodipodi.sourceforge.net/DTD/sodipodi-0.dtd"
   xmlns:inkscape="http://www.inkscape.org/namespaces/inkscape"
   width="194mm"
   height="297mm"
   viewBox="0 0 194 297"
   version="1.1"
   id="svg14632"
   inkscape:version="0.92.4 5da689c313, 2019-01-14"
   sodipodi:docname="planche.svg">
  <defs
     id="defs14626" />
  <sodipodi:namedview
     id="base"
     pagecolor="#ffffff"
     bordercolor="#666666"
     borderopacity="1.0"
     inkscape:pageopacity="0.0"
     inkscape:pageshadow="2"
     inkscape:zoom="1.4"
     inkscape:cx="95.688086"
     inkscape:cy="240.94215"
     inkscape:document-units="mm"
     inkscape:current-layer="layer1-8"
     showgrid="false"
     inkscape:window-width="1366"
     inkscape:window-height="678"
     inkscape:window-x="0"
     inkscape:window-y="90"
     inkscape:window-maximized="0" />
  <metadata
     id="metadata14629">
    <rdf:RDF>
      <cc:Work
         rdf:about="">
        <dc:format>image/svg+xml</dc:format>
        <dc:type
           rdf:resource="http://purl.org/dc/dcmitype/StillImage" />
        <dc:title></dc:title>
      </cc:Work>
    </rdf:RDF>
  </metadata>
  <g
     inkscape:label="Layer 1"
     inkscape:groupmode="layer"
     id="layer1">
    <g
       id="g16030"
       inkscape:label="roues"
       transform="matrix(1.0447455,0,0,1.21023,3.2127976,-62.749059)">
      <g
         transform="matrix(0.35277777,0,0,-0.35277777,59.665303,262.35875)"
         id="g7041">
        <path
           style="fill:#e7e8e9;fill-opacity:1;fill-rule:nonzero;stroke:none;stroke-width:1.49926341"
           d="m 18.605469,955.40625 c -3.554921,0 -6.462891,3.36832 -6.462891,7.48633 v 20.85156 c 0,4.11962 2.90797,7.48828 6.462891,7.48828 h 4.878906 c -3.250287,2.43615 -6.380594,5.18806 -9.316406,8.57031 -6.3793767,7.34987 -10.8062942,16.90477 -12.8027346,27.63087 -0.8296541,4.4544 -1.25195315,9.0878 -1.25195315,13.7695 0,7.647 1.13938885,15.2635 3.29296875,22.0274 2.8738406,9.024 7.284591,16.4282 13.447266,22.5742 -2.709199,0.8916 -4.710938,3.7838 -4.710938,7.1992 v 20.8516 c 0,4.118 2.90797,7.4902 6.462891,7.4902 h 34.996093 c 3.556314,0 6.462891,-3.3722 6.462891,-7.4902 v -2.7774 c 20.117172,7.9749 39.748174,11.7511 58.599607,11.2051 0.21992,0.023 0.43463,0.014 0.63672,-0.018 14.10106,-0.3961 28.043,-2.3815 41.01758,-4.4726 28.10856,-4.5296 56.9973,-9.3999 85.86328,-14.4746 0.51778,-0.091 1.04005,-0.1913 1.55859,-0.2832 v 10.8203 c 0,4.118 2.90714,7.4902 6.46485,7.4902 h 34.99219 c 3.55631,0 6.46484,-3.3722 6.46484,-7.4902 v -19.7559 c 1.28246,-0.2503 2.57158,-0.5205 3.85547,-0.8301 3.29691,-0.7952 7.03342,-1.6979 10.48633,-4.7324 7.71646,-6.7822 9.57129,-21.0556 10.32617,-32.7344 0.32433,-5.0159 0.64258,-10.3791 0.64258,-15.9433 0,-1.0938 -0.014,-2.178 -0.0391,-3.2227 -0.14414,-6.0419 -0.61808,-12.3268 -1.41015,-18.6797 -0.8064,-6.4725 -2.18015,-11.902 -4.08203,-16.1347 -2.15862,-4.80492 -5.13362,-8.15719 -9.09571,-10.25003 -3.91749,-2.06886 -7.94599,-2.87782 -11.90625,-3.47071 0.76561,-1.2304 1.22266,-2.73329 1.22266,-4.35742 v -20.85156 c 0,-4.11801 -2.90853,-7.48633 -6.46484,-7.48633 h -34.99219 c -3.55771,0 -6.46485,3.36832 -6.46485,7.48633 v 16.81054 c -22.63759,-3.94595 -45.18985,-7.70413 -68.10351,-11.49609 -13.82596,-2.28829 -28.54938,-4.66781 -43.18945,-6.39258 -15.79973,-1.86038 -29.01143,-1.83846 -41.580082,0.0703 -11.748448,1.78367 -23.42073,5.01213 -34.802735,9.57226 v -8.56445 c 0,-4.11801 -2.906577,-7.48633 -6.462891,-7.48633 z"
           transform="matrix(0.7178782,0,0,-0.61971693,-177.84709,596.72093)"
           id="path7043"
           inkscape:connector-curvature="0" />
      </g>
    </g>
    <g
       id="layer1-8"
       inkscape:label="chubby"
       transform="matrix(0.212385,0,0,0.27335007,76.68977,262.74608)"
       style="display:inline;fill:#58595b;fill-opacity:1">
      <g
         id="g95"
         transform="matrix(1.0498568,0,0,0.99977882,-90.555782,-224.71341)"
         inkscape:label="back_truck"
         style="fill:#58595b;fill-opacity:1">
        <ellipse
           cy="291"
           cx="6"
           id="ellipse929"
           style="fill:#58595b;fill-opacity:1;stroke:#000000;stroke-width:0.20454241;stroke-miterlimit:4;stroke-dasharray:none;stroke-opacity:1"
           rx="2.8977289"
           ry="2.8977287" />
        <ellipse
           ry="2.8977287"
           rx="2.8977289"
           style="fill:#58595b;fill-opacity:1;stroke:#000000;stroke-width:0.20454241;stroke-miterlimit:4;stroke-dasharray:none;stroke-opacity:1"
           id="ellipse40"
           cx="6"
           cy="251" />
        <ellipse
           ry="2.8977287"
           rx="2.8977289"
           style="display:inline;fill:#58595b;fill-opacity:1;stroke:#000000;stroke-width:0.20454241;stroke-miterlimit:4;stroke-dasharray:none;stroke-opacity:1"
           id="ellipse42"
           cx="68"
           cy="291" />
        <ellipse
           cy="251"
           cx="68"
           id="ellipse44"
           style="display:inline;fill:#58595b;fill-opacity:1;stroke:#000000;stroke-width:0.20454241;stroke-miterlimit:4;stroke-dasharray:none;stroke-opacity:1"
           rx="2.8977289"
           ry="2.8977287" />
      </g>
      <g
         transform="matrix(-1.0498568,0,0,-0.99977882,-266.56593,318.22519)"
         id="g111"
         inkscape:label="front_truck"
         style="fill:#58595b;fill-opacity:1">
        <ellipse
           ry="2.8977287"
           rx="2.8977289"
           style="fill:#58595b;fill-opacity:1;stroke:#000000;stroke-width:0.20454241;stroke-miterlimit:4;stroke-dasharray:none;stroke-opacity:1"
           id="ellipse99"
           cx="6"
           cy="291" />
        <ellipse
           cy="251"
           cx="6"
           id="ellipse101"
           style="fill:#58595b;fill-opacity:1;stroke:#000000;stroke-width:0.20454241;stroke-miterlimit:4;stroke-dasharray:none;stroke-opacity:1"
           rx="2.8977289"
           ry="2.8977287" />
        <ellipse
           cy="291"
           cx="68"
           id="ellipse103"
           style="fill:#58595b;fill-opacity:1;stroke:#000000;stroke-width:0.20454241;stroke-miterlimit:4;stroke-dasharray:none;stroke-opacity:1"
           rx="2.8977289"
           ry="2.8977287" />
        <ellipse
           ry="2.8977287"
           rx="2.8977289"
           style="fill:#58595b;fill-opacity:1;stroke:#000000;stroke-width:0.20454241;stroke-miterlimit:4;stroke-dasharray:none;stroke-opacity:1"
           id="ellipse105"
           cx="68"
           cy="251" />
      </g>
    </g>
  </g>
</svg>
